<?xml version="1.0" encoding="UTF-8"?>
<svg id="Camada_2" data-name="Camada 2" xmlns="http://www.w3.org/2000/svg" xmlns:xlink="http://www.w3.org/1999/xlink" viewBox="0 0 1955.84 1106.44">
  <defs>
    <style>
      .cls-1 {
        fill: #fbbe00;
      }

      .cls-2 {
        fill: none;
      }

      .cls-3 {
        fill: url(#Novo_padrão);
      }

      .cls-4 {
        fill: #fbdc00;
      }
    </style>
    <pattern id="Novo_padrão" data-name="Novo padrão" x="0" y="0" width="515.2" height="514.5" patternTransform="translate(10908.42 955.73) rotate(-25) scale(.79)" patternUnits="userSpaceOnUse" viewBox="0 0 515.2 514.5">
      <g>
        <rect class="cls-2" width="515.2" height="514.5"/>
        <path class="cls-4" d="M444.56,507.36c-.48-1.7-1.58-2.85-2.67-3.89-3.78-3.6-10.5,2.8-12.46,4.85l-.05.05c-.46.47-.93.97-1.54,1.12-.74.18-1.5-.16-2.28-.5-5.8-2.58-11.99-4.03-17.43-4.1-.08,0-.29-.03-.52-.06-.33-.04-.58-.08-.78-.09,1.22-.95,4.82-3.95,6.56-7.5l.02-.02c2.91-7.43,2.96-15.34.12-22.29-2.91-7.12-8.66-13.37-15.78-17.15-6.9-3.66-15.36-4.77-25.16-3.29-1.12.17-2.24.37-3.34.6-10.44,2.19-18.86,9.23-21.46,17.93-.14.48-.33,1.01-.75,1.15-.24.08-.53,0-.8-.09-1.21-.4-2.37-1-3.49-1.59-.67-.35-1.37-.71-2.07-1.03-2.37-1.07-4.37-1.34-6.09-.84-1.83.53-3.42,2.06-4.16,4-2.03,5.28,2.93,11.35,6.2,15.09,2.2,2.52,4.59,4.87,7.14,7.04,1.69,1.43,6.58,3.74,4.84,6.66-.5.83-4.15,1.21-5.09,1.5h-.04c-1.98.92-3.89,1.92-4.51,2.26-3.62,2.02-6.54,4.58-8.66,7.63-4.84,6.93-5.96,16.42-3,25.39,3.96,12.23,12.86,17.7,25.94,22.57,8.02,3.13,16.6,5.83,27,8.47,3.13.79,6.43,1.58,9.92,2.38,4.59.97,8.4,1.47,11.98,1.56,7.3.17,13.93-1.83,21.51-6.48,9.2-5.65,16.41-14.63,20.3-25.27,1-2.74,1.78-5.62,2.3-8.55,1.61-8.89,1.02-18.39-1.69-27.48Z"/>
        <path class="cls-4" d="M186.96,507.36c-.48-1.7-1.58-2.85-2.67-3.89-3.78-3.6-10.5,2.8-12.46,4.85l-.05.05c-.46.47-.93.97-1.54,1.12-.74.18-1.5-.16-2.28-.5-5.8-2.58-11.99-4.03-17.43-4.1-.08,0-.29-.03-.52-.06-.33-.04-.58-.08-.78-.09,1.22-.95,4.82-3.95,6.56-7.5l.02-.02c2.91-7.43,2.96-15.34.12-22.29-2.91-7.12-8.66-13.37-15.78-17.15-6.9-3.66-15.36-4.77-25.16-3.29-1.12.17-2.24.37-3.34.6-10.44,2.19-18.86,9.23-21.46,17.93-.14.48-.33,1.01-.75,1.15-.24.08-.53,0-.8-.09-1.21-.4-2.37-1-3.49-1.59-.67-.35-1.37-.71-2.07-1.03-2.37-1.07-4.37-1.34-6.09-.84-1.83.53-3.42,2.06-4.16,4-2.03,5.28,2.93,11.35,6.2,15.09,2.2,2.52,4.59,4.87,7.14,7.04,1.69,1.43,6.58,3.74,4.84,6.66-.5.83-4.15,1.21-5.09,1.5h-.04c-1.98.92-3.89,1.92-4.51,2.26-3.62,2.02-6.54,4.58-8.66,7.63-4.84,6.93-5.96,16.42-3,25.39,3.96,12.23,12.86,17.7,25.94,22.57,8.02,3.13,16.6,5.83,27,8.47,3.13.79,6.43,1.58,9.92,2.38,4.59.97,8.4,1.47,11.98,1.56,7.3.17,13.93-1.83,21.51-6.48,9.2-5.65,16.41-14.63,20.3-25.27,1-2.74,1.78-5.62,2.3-8.55,1.61-8.89,1.02-18.39-1.69-27.48Z"/>
        <path class="cls-4" d="M573.36,250.11c-.48-1.7-1.58-2.85-2.67-3.89-3.78-3.6-10.5,2.8-12.46,4.85l-.05.05c-.46.47-.93.97-1.54,1.12-.74.18-1.5-.16-2.28-.5-5.8-2.58-11.99-4.03-17.43-4.1-.08,0-.29-.03-.52-.06-.33-.04-.58-.08-.78-.09,1.22-.95,4.82-3.95,6.56-7.5l.02-.02c2.91-7.43,2.96-15.34.12-22.29-2.91-7.12-8.66-13.37-15.78-17.15-6.9-3.66-15.36-4.77-25.16-3.29-1.12.17-2.24.37-3.34.6-10.44,2.19-18.86,9.23-21.46,17.93-.14.48-.33,1.01-.75,1.15-.24.08-.53,0-.8-.09-1.21-.4-2.37-1-3.49-1.59-.67-.35-1.37-.71-2.07-1.03-2.37-1.07-4.37-1.34-6.09-.84-1.83.53-3.42,2.06-4.16,4-2.03,5.28,2.93,11.35,6.2,15.09,2.2,2.52,4.59,4.87,7.14,7.04,1.69,1.43,6.58,3.74,4.84,6.66-.5.83-4.15,1.21-5.09,1.5h-.04c-1.98.92-3.89,1.92-4.51,2.26-3.62,2.02-6.54,4.58-8.66,7.63-4.84,6.93-5.96,16.42-3,25.39,3.96,12.23,12.86,17.7,25.94,22.57,8.02,3.13,16.6,5.83,27,8.47,3.13.79,6.43,1.58,9.92,2.38,4.59.97,8.4,1.47,11.98,1.56,7.3.17,13.93-1.83,21.51-6.48,9.2-5.65,16.41-14.63,20.3-25.27,1-2.74,1.78-5.62,2.3-8.55,1.61-8.89,1.02-18.39-1.69-27.48Z"/>
        <path class="cls-4" d="M315.76,250.11c-.48-1.7-1.58-2.85-2.67-3.89-3.78-3.6-10.5,2.8-12.46,4.85l-.05.05c-.46.47-.93.97-1.54,1.12-.74.18-1.5-.16-2.28-.5-5.8-2.58-11.99-4.03-17.43-4.1-.08,0-.29-.03-.52-.06-.33-.04-.58-.08-.78-.09,1.22-.95,4.82-3.95,6.56-7.5l.02-.02c2.91-7.43,2.96-15.34.12-22.29-2.91-7.12-8.66-13.37-15.78-17.15-6.9-3.66-15.36-4.77-25.16-3.29-1.12.17-2.24.37-3.34.6-10.44,2.19-18.86,9.23-21.46,17.93-.14.48-.33,1.01-.75,1.15-.24.08-.53,0-.8-.09-1.21-.4-2.37-1-3.49-1.59-.67-.35-1.37-.71-2.07-1.03-2.37-1.07-4.37-1.34-6.09-.84-1.83.53-3.42,2.06-4.16,4-2.03,5.28,2.93,11.35,6.2,15.09,2.2,2.52,4.59,4.87,7.14,7.04,1.69,1.43,6.58,3.74,4.84,6.66-.5.83-4.15,1.21-5.09,1.5h-.04c-1.98.92-3.89,1.92-4.51,2.26-3.62,2.02-6.54,4.58-8.66,7.63-4.84,6.93-5.96,16.42-3,25.39,3.96,12.23,12.86,17.7,25.94,22.57,8.02,3.13,16.6,5.83,27,8.47,3.13.79,6.43,1.58,9.92,2.38,4.59.97,8.4,1.47,11.98,1.56,7.3.17,13.93-1.83,21.51-6.48,9.2-5.65,16.41-14.63,20.3-25.27,1-2.74,1.78-5.62,2.3-8.55,1.61-8.89,1.02-18.39-1.69-27.48Z"/>
        <path class="cls-4" d="M58.16,250.11c-.48-1.7-1.58-2.85-2.67-3.89-3.78-3.6-10.5,2.8-12.46,4.85l-.05.05c-.46.47-.93.97-1.54,1.12-.74.18-1.5-.16-2.28-.5-5.8-2.58-11.99-4.03-17.43-4.1-.08,0-.29-.03-.52-.06-.33-.04-.58-.08-.78-.09,1.22-.95,4.82-3.95,6.56-7.5l.02-.02c2.91-7.43,2.96-15.34.12-22.29-2.91-7.12-8.66-13.37-15.78-17.15-6.9-3.66-15.36-4.77-25.16-3.29-1.12.17-2.24.37-3.34.6-10.44,2.19-18.86,9.23-21.46,17.93-.14.48-.33,1.01-.75,1.15-.24.08-.53,0-.8-.09-1.21-.4-2.37-1-3.49-1.59-.67-.35-1.37-.71-2.07-1.03-2.37-1.07-4.37-1.34-6.09-.84-1.83.53-3.42,2.06-4.16,4-2.03,5.28,2.93,11.35,6.2,15.09,2.2,2.52,4.59,4.87,7.14,7.04,1.69,1.43,6.58,3.74,4.84,6.66-.5.83-4.15,1.21-5.09,1.5h-.04c-1.98.92-3.89,1.92-4.51,2.26-3.62,2.02-6.54,4.58-8.66,7.63-4.84,6.93-5.96,16.42-3,25.39,3.96,12.23,12.86,17.7,25.94,22.57,8.02,3.13,16.6,5.83,27,8.47,3.13.79,6.43,1.58,9.92,2.38,4.59.97,8.4,1.47,11.98,1.56,7.3.17,13.93-1.83,21.51-6.48,9.2-5.65,16.41-14.63,20.3-25.27,1-2.74,1.78-5.62,2.3-8.55,1.61-8.89,1.02-18.39-1.69-27.48Z"/>
        <path class="cls-4" d="M444.56-7.14c-.48-1.7-1.58-2.85-2.67-3.89-3.78-3.6-10.5,2.8-12.46,4.85l-.05.05c-.46.47-.93.97-1.54,1.12-.74.18-1.5-.16-2.28-.5-5.8-2.58-11.99-4.03-17.43-4.1-.08,0-.29-.03-.52-.06-.33-.04-.58-.08-.78-.09,1.22-.95,4.82-3.95,6.56-7.5l.02-.02c2.91-7.43,2.96-15.34.12-22.29-2.91-7.12-8.66-13.37-15.78-17.15-6.9-3.66-15.36-4.77-25.16-3.29-1.12.17-2.24.37-3.34.6-10.44,2.19-18.86,9.23-21.46,17.93-.14.48-.33,1.01-.75,1.15-.24.08-.53,0-.8-.09-1.21-.4-2.37-1-3.49-1.59-.67-.35-1.37-.71-2.07-1.03-2.37-1.07-4.37-1.34-6.09-.84-1.83.53-3.42,2.06-4.16,4-2.03,5.28,2.93,11.35,6.2,15.09,2.2,2.52,4.59,4.87,7.14,7.04,1.69,1.43,6.58,3.74,4.84,6.66-.5.83-4.15,1.21-5.09,1.5h-.04c-1.98.92-3.89,1.92-4.51,2.26-3.62,2.02-6.54,4.58-8.66,7.63-4.84,6.93-5.96,16.42-3,25.39,3.96,12.23,12.86,17.7,25.94,22.57,8.02,3.13,16.6,5.83,27,8.47,3.13.79,6.43,1.58,9.92,2.38,4.59.97,8.4,1.47,11.98,1.56,7.3.17,13.93-1.83,21.51-6.48,9.2-5.65,16.41-14.63,20.3-25.27,1-2.74,1.78-5.62,2.3-8.55,1.61-8.89,1.02-18.39-1.69-27.48Z"/>
        <path class="cls-4" d="M186.96-7.14c-.48-1.7-1.58-2.85-2.67-3.89-3.78-3.6-10.5,2.8-12.46,4.85l-.05.05c-.46.47-.93.97-1.54,1.12-.74.18-1.5-.16-2.28-.5-5.8-2.58-11.99-4.03-17.43-4.1-.08,0-.29-.03-.52-.06-.33-.04-.58-.08-.78-.09,1.22-.95,4.82-3.95,6.56-7.5l.02-.02c2.91-7.43,2.96-15.34.12-22.29-2.91-7.12-8.66-13.37-15.78-17.15-6.9-3.66-15.36-4.77-25.16-3.29-1.12.17-2.24.37-3.34.6-10.44,2.19-18.86,9.23-21.46,17.93-.14.48-.33,1.01-.75,1.15-.24.08-.53,0-.8-.09-1.21-.4-2.37-1-3.49-1.59-.67-.35-1.37-.71-2.07-1.03-2.37-1.07-4.37-1.34-6.09-.84-1.83.53-3.42,2.06-4.16,4-2.03,5.28,2.93,11.35,6.2,15.09,2.2,2.52,4.59,4.87,7.14,7.04,1.69,1.43,6.58,3.74,4.84,6.66-.5.83-4.15,1.21-5.09,1.5h-.04c-1.98.92-3.89,1.92-4.51,2.26-3.62,2.02-6.54,4.58-8.66,7.63-4.84,6.93-5.96,16.42-3,25.39,3.96,12.23,12.86,17.7,25.94,22.57,8.02,3.13,16.6,5.83,27,8.47,3.13.79,6.43,1.58,9.92,2.38,4.59.97,8.4,1.47,11.98,1.56,7.3.17,13.93-1.83,21.51-6.48,9.2-5.65,16.41-14.63,20.3-25.27,1-2.74,1.78-5.62,2.3-8.55,1.61-8.89,1.02-18.39-1.69-27.48Z"/>
      </g>
    </pattern>
  </defs>
  <g id="Camada_1-2" data-name="Camada 1">
    <rect class="cls-1" width="1955.84" height="1106.44"/>
    <rect class="cls-3" x="4.7" y="5.57" width="1946.44" height="1095.31"/>
  </g>
</svg>