<?xml version="1.0" encoding="UTF-8"?>
<svg id="Camada_2" data-name="Camada 2" xmlns="http://www.w3.org/2000/svg" xmlns:xlink="http://www.w3.org/1999/xlink" viewBox="0 0 851.07 296.47">
  <defs>
    <style>
      .cls-1 {
        fill: url(#Gradiente_sem_nome_28-4);
      }

      .cls-2 {
        fill: url(#Gradiente_sem_nome_28-2);
      }

      .cls-3 {
        fill: url(#Gradiente_sem_nome_39);
      }

      .cls-4 {
        fill: #fff;
      }

      .cls-5 {
        fill: url(#Gradiente_sem_nome_763);
        opacity: .53;
      }

      .cls-6 {
        fill: url(#Gradiente_sem_nome_586);
      }

      .cls-7 {
        fill: url(#Gradiente_sem_nome_28-3);
      }

      .cls-8 {
        fill: url(#Gradiente_sem_nome_28);
      }
    </style>
    <linearGradient id="Gradiente_sem_nome_28" data-name="Gradiente sem nome 28" x1="86.77" y1="324.12" x2="91.6" y2="150.33" gradientUnits="userSpaceOnUse">
      <stop offset=".28" stop-color="#fdaf01"/>
      <stop offset="1" stop-color="#fde801"/>
    </linearGradient>
    <linearGradient id="Gradiente_sem_nome_28-2" data-name="Gradiente sem nome 28" x1="252" y1="328.71" x2="256.83" y2="154.92" xlink:href="#Gradiente_sem_nome_28"/>
    <linearGradient id="Gradiente_sem_nome_28-3" data-name="Gradiente sem nome 28" x1="401.29" y1="332.86" x2="406.12" y2="159.07" xlink:href="#Gradiente_sem_nome_28"/>
    <linearGradient id="Gradiente_sem_nome_28-4" data-name="Gradiente sem nome 28" x1="567.99" y1="337.49" x2="572.81" y2="163.7" xlink:href="#Gradiente_sem_nome_28"/>
    <linearGradient id="Gradiente_sem_nome_39" data-name="Gradiente sem nome 39" x1="826.18" y1="19.08" x2="816.13" y2="-83.58" gradientTransform="translate(-108.36 47.45) rotate(6.53)" gradientUnits="userSpaceOnUse">
      <stop offset="0" stop-color="#fe0092"/>
      <stop offset="1" stop-color="#ff75c3"/>
    </linearGradient>
    <linearGradient id="Gradiente_sem_nome_586" data-name="Gradiente sem nome 586" x1="817.01" y1="-59.25" x2="853.22" y2="82.03" gradientTransform="translate(-108.36 47.45) rotate(6.53)" gradientUnits="userSpaceOnUse">
      <stop offset="0" stop-color="#fe0092"/>
      <stop offset="1" stop-color="#bf2c7f"/>
    </linearGradient>
    <linearGradient id="Gradiente_sem_nome_763" data-name="Gradiente sem nome 763" x1="907.33" y1="-137.97" x2="899.8" y2="-49.5" gradientTransform="translate(-108.36 47.45) rotate(6.53)" gradientUnits="userSpaceOnUse">
      <stop offset="0" stop-color="#fff"/>
      <stop offset="1" stop-color="#fff" stop-opacity="0"/>
    </linearGradient>
  </defs>
  <g id="Camada_1-2" data-name="Camada 1">
    <g>
      <g>
        <path class="cls-8" d="M94.54,91.08l-56.68-2.18c-19.84-.76-31.61,10.14-32.27,27.14L.03,260.59c-.65,17,10.25,28.78,30.09,29.54,19.84.76,31.61-10.14,32.27-27.14l1.31-34.01,25.51.98c56.68,2.18,89.06-27.79,90.53-66.06,1.47-38.26-28.5-70.64-85.19-72.82ZM91.16,178.94l-25.51-.98,1.42-36.85,25.51.98c14.17.55,22.35,9.38,21.96,19.3-.38,9.92-9.21,18.1-23.38,17.55Z"/>
        <path class="cls-2" d="M302.47,139.36c-6.87-19.47-18.33-31.37-43.99-32.13-25.66-.76-37.55,10.44-45.82,29.45l-44.27,106.55s-6.87,15.2-7.1,22.9c-.42,14.11,10.78,26,27.46,26.5,14.11.42,24.68-9.54,31.56-24.74l6.87-15.21,53.88,1.61,5.96,15.59c5.96,15.59,15.91,26.16,30.03,26.58,16.68.5,28.57-10.71,28.99-24.82.23-7.7-5.73-23.28-5.73-23.28l-37.84-108.99ZM240.1,206.84l15.26-38.07,2.57.08,12.97,38.91-30.79-.92Z"/>
        <path class="cls-7" d="M497.24,119.38c-1.11-16.4-12.78-26.59-31.9-25.3l-120.25,8.11c-19.13,1.29-29.32,12.96-28.22,29.36,1.11,16.4,12.77,26.59,31.9,25.3l30.06-2.03,7.55,112.05c1.11,16.4,12.77,26.59,31.9,25.3,19.13-1.29,29.32-12.96,28.22-29.36l-7.55-112.05,30.06-2.03c19.13-1.29,29.32-12.96,28.22-29.36Z"/>
        <path class="cls-1" d="M571.88,103.95c-49.62,0-89.85,41.73-89.85,93.21s40.23,93.21,89.85,93.21,89.85-41.73,89.85-93.21-40.23-93.21-89.85-93.21ZM571.88,231.76c-19.11,0-34.61-15.49-34.61-34.61s15.49-34.61,34.61-34.61,34.61,15.49,34.61,34.61-15.49,34.61-34.61,34.61Z"/>
      </g>
      <g>
        <path class="cls-3" d="M850.54,105.34c-15.57,93.03-106.29,66.67-171.93,56.62l-85.28,15.67c-4.7.87-8.1-4.39-5.38-8.31,4.54-6.45,13.39-19.49,17.87-25.9-4.87-3.19-9.17-6.73-12.93-10.52l-.09-.11c-10.83-10.98-17.19-24.16-19.68-37.92-1.6-8.81-1.64-17.85-.24-26.68,6.2-39.46,40.57-74.82,88.22-67.15,63.71,13.79,191.84,2.15,189.94,95.57,0,.24,0,.49-.01.73-.05,2.58-.23,5.24-.5,7.98Z"/>
        <g>
          <path class="cls-4" d="M667.69,56.24c-1.24-15.07-26.57-18.76-32.12-4.67-3,6.22-22.37,38.14-23.79,44.33-1.29,12.01,16.23,14.61,21.11,3.07,0,0,3.1-5.17,3.1-5.17l19.27,2.8,1.49,5.84c1.39,12.44,18.92,14.96,21.11,3.07.42-6.2-9.1-42.62-10.17-49.28ZM642.52,77.88l7.05-13.03.92.13,3.04,14.5-11.01-1.6Z"/>
          <path class="cls-4" d="M723.3,54.96c-7.99-.19-28.72-8.38-29.78,5.04,0,0-6.81,46.8-6.81,46.8-2.78,11.94,19.45,15.18,20.19,2.94,0,0,1.6-11.01,1.6-11.01,40.38,12.6,59.3-35.24,14.8-43.77ZM719.16,83.41l-8.26-1.2,1.74-11.93,8.26,1.2c9.72,1.27,7.94,13.48-1.74,11.93Z"/>
          <path class="cls-4" d="M784.1,65.22c-7.99-.19-28.72-8.38-29.78,5.04,0,0-6.81,46.8-6.81,46.8-2.78,11.94,19.45,15.18,20.19,2.94,0,0,1.6-11.01,1.6-11.01,40.38,12.6,59.3-35.24,14.8-43.77ZM779.96,93.67l-8.26-1.2,1.74-11.93,8.26,1.2c9.72,1.27,7.94,13.48-1.74,11.93Z"/>
        </g>
        <path class="cls-6" d="M850.54,105.34c-15.57,93.03-106.29,66.67-171.93,56.62l-85.28,15.67c-4.7.87-8.1-4.39-5.38-8.31,4.54-6.45,13.39-19.49,17.87-25.9-4.8-2.79-9.11-6.38-12.93-10.52l-.09-.11c-9.88-10.75-16.4-25.09-19.68-37.92-1.6-8.81-1.64-17.85-.24-26.68,1.5,23.2,13.5,60.59,56.41,62.26,9.48.38-20.67,25.26-12.54,28.26,14.16,5.23,46.44-12.22,56.31-11.41,73.29,7.29,156.19,36.07,177.98-50.69,0,.24,0,.49-.01.73-.03,2.63-.19,5.29-.5,7.98Z"/>
        <path class="cls-5" d="M766.39,30.19c25.42-2.6,56.93,9.43,67.62,34.42,6.72,15.21,1.58,34.58-9.72,45.14,3.55-19.06,1.12-33.87-12.4-46.93-11.79-12.13-28.97-19.5-45.78-23.12-5.39-.97-5.12-8.88.27-9.51h0Z"/>
      </g>
    </g>
  </g>
</svg>