<?xml version="1.0" encoding="UTF-8"?>
<svg id="Camada_2" data-name="Camada 2" xmlns="http://www.w3.org/2000/svg" xmlns:xlink="http://www.w3.org/1999/xlink" viewBox="0 0 890.09 556.12">
  <defs>
    <style>
      .cls-1 {
        fill: #f79304;
      }

      .cls-2 {
        fill: url(#Gradiente_sem_nome_28-4);
      }

      .cls-3 {
        fill: url(#Gradiente_sem_nome_28-2);
      }

      .cls-4 {
        fill: url(#Gradiente_sem_nome_39);
      }

      .cls-5 {
        fill: #fff;
      }

      .cls-6 {
        fill: url(#Gradiente_sem_nome_763);
        opacity: .53;
      }

      .cls-7 {
        fill: #270a06;
      }

      .cls-8 {
        fill: #220705;
      }

      .cls-9 {
        fill: url(#Gradiente_sem_nome_28-5);
      }

      .cls-10 {
        fill: #fd5e0c;
      }

      .cls-11 {
        fill: url(#Gradiente_sem_nome_586);
      }

      .cls-12 {
        fill: url(#Gradiente_sem_nome_28-3);
      }

      .cls-13 {
        fill: #fcfcf8;
      }

      .cls-14 {
        fill: url(#Gradiente_sem_nome_28);
      }
    </style>
    <linearGradient id="Gradiente_sem_nome_28" data-name="Gradiente sem nome 28" x1="374.76" y1="734.02" x2="262.24" y2="474.06" gradientTransform="translate(96.07 -369.05) rotate(5.18)" gradientUnits="userSpaceOnUse">
      <stop offset=".28" stop-color="#fdaf01"/>
      <stop offset="1" stop-color="#fde801"/>
    </linearGradient>
    <linearGradient id="Gradiente_sem_nome_28-2" data-name="Gradiente sem nome 28" x1="98.81" y1="553.9" x2="103.75" y2="376.02" gradientTransform="matrix(1,0,0,1,0,0)" xlink:href="#Gradiente_sem_nome_28"/>
    <linearGradient id="Gradiente_sem_nome_28-3" data-name="Gradiente sem nome 28" x1="267.93" y1="558.6" x2="272.87" y2="380.72" gradientTransform="matrix(1,0,0,1,0,0)" xlink:href="#Gradiente_sem_nome_28"/>
    <linearGradient id="Gradiente_sem_nome_28-4" data-name="Gradiente sem nome 28" x1="420.73" y1="562.84" x2="425.67" y2="384.96" gradientTransform="matrix(1,0,0,1,0,0)" xlink:href="#Gradiente_sem_nome_28"/>
    <linearGradient id="Gradiente_sem_nome_28-5" data-name="Gradiente sem nome 28" x1="591.35" y1="567.58" x2="596.29" y2="389.7" gradientTransform="matrix(1,0,0,1,0,0)" xlink:href="#Gradiente_sem_nome_28"/>
    <linearGradient id="Gradiente_sem_nome_39" data-name="Gradiente sem nome 39" x1="792.68" y1="695.26" x2="782.4" y2="590.18" gradientTransform="translate(28.51 -394.6) rotate(6.53)" gradientUnits="userSpaceOnUse">
      <stop offset="0" stop-color="#fe0092"/>
      <stop offset="1" stop-color="#ff75c3"/>
    </linearGradient>
    <linearGradient id="Gradiente_sem_nome_586" data-name="Gradiente sem nome 586" x1="783.3" y1="615.08" x2="820.36" y2="759.69" gradientTransform="translate(28.51 -394.6) rotate(6.53)" gradientUnits="userSpaceOnUse">
      <stop offset="0" stop-color="#fe0092"/>
      <stop offset="1" stop-color="#bf2c7f"/>
    </linearGradient>
    <linearGradient id="Gradiente_sem_nome_763" data-name="Gradiente sem nome 763" x1="875.74" y1="534.51" x2="868.03" y2="625.06" gradientTransform="translate(28.51 -394.6) rotate(6.53)" gradientUnits="userSpaceOnUse">
      <stop offset="0" stop-color="#fff"/>
      <stop offset="1" stop-color="#fff" stop-opacity="0"/>
    </linearGradient>
  </defs>
  <g id="Camada_1-2" data-name="Camada 1">
    <g>
      <path class="cls-14" d="M544.75,182.83c-.34-1.07-.66-2.33-1-3.67-.93-3.63-2.09-8.15-4.06-10.55l-.19-.46c-1.77-5.35-5.45-16.49-12.38-14.91-.15.03-.3.08-.44.12l-.26.07c-7.06,2.28-14.04,10.96-19.65,17.94-1.32,1.64-2.56,3.18-3.7,4.51l-.34.4c-1.71,1.99-3.47,4.06-5.71,5.54-5.02,3.35-11.62,1.69-16.92.36l-1.27-.32c-13.72-3.35-27.88-5.2-42.09-5.49-1.13-.02-2.34-.06-3.59-.1-4.61-.15-9.82-.33-14.89.16l-14.5,1.07c-2.12,1.93-27.1,24.15-49.59,23.1l-.37-.17c-.48-.49-.84-1.04-1.08-1.64-.35-.83-.47-1.77-.36-2.78l.39-.47,2.54-.73c7.64-2.25,19.76-10.92,35.04-25.05,6.26-4.74,11.62-10.01,15.96-15.72l.11-.12c1.1-1.44,2.21-3.01,3.29-4.66,13.51-20.87,15.96-48.53,6.23-70.47-1.41-4.14-3.31-8.23-5.84-12.53-4.85-8.31-10.96-15.96-18.17-22.73-39.31-36.94-104.14-41.15-150.79-9.79-16.75,11.26-34.81,37.62-37.78,60.35,3.63-2.7,10.84-7.04,14.68-9.16,6.56-3.64,10.81-6.47,16.21-.5,4.2,4.65,7.3,9.87,10.29,14.92,5.48,9.24,10.66,17.98,21.95,22.72,25.28,10.62,29.12,38.59,19.85,60.74-5.55,8.8-11.39,14.38-18.4,17.65-7.31,3.41-15.07,4.54-23.65,3.44-6.63-.86-13.62-2.56-21.36-5.22-2.05.5-25.12,6.53-44.87,29.69l-.11.11c-17.56,19.6-24.49,48.92-17.59,74.64,3.12,11.59,8.37,22.34,15.61,31.94.01.02.03.03.04.05.35.44.69.84,1.05,1.27l-.02.02.67.81c2.17,2.62,4.42,5.34,6.86,7.82,40.57,41.37,108.28,48.24,162.68,53.75l5.45.55c13.86,1.42,28.79,2.77,44.04,3.08,32.38.66,61.11-6.86,85.41-22.36,25.27-16.11,43.57-35.62,54.37-57.97,3.72-7.69,6.9-15.75,9.45-23.95,11.42-36.64,11.01-76.51-1.21-115.29Z"/>
      <path class="cls-10" d="M268.17,187.89c4.44-2.61,8.05-6.6,10.76-11.88,4.17-7.93,3.24-17.93,2.32-23.18-1.31-9.78-9.88-15.74-18.95-22.05-7.12-4.95-14.48-10.08-18.46-17.32-.87-1.57-1.82-3.64-2.93-6.04-4.03-8.71-9.56-20.64-16.82-22.01-2.82-.52-5.78.66-8.78,3.54-.74.71-5.3,5.43-8.39,9.45-2.58,3.35-6.22,5.66-10.26,6.5l-.41.09c-2.36.49-4.81.99-8.7.51-5.28-.64-8.97-2.91-12.88-5.32-1.43-.88-2.92-1.79-4.53-2.66-6.91-3.71-18.3-1.93-24.37,3.81-4.18,3.96-5.07,9.14-2.51,14.61,2.55,5.45,8.79,9.43,15.16,12.91,2.46,1.91,14.09,3.28,14.92,2.26-.02-.02-.18-.63-3.41-2.25-.96-.48-1.93-.95-2.89-1.42-4.59-2.24-9.33-4.57-13.44-8-1.79-1.5-2.84-3.37-2.83-5.01.01-1.21.56-2.27,1.64-3.14,2.07-1.68,5.02-1.57,7.06-1.36,10.12,1.14,19.13,6.46,27.84,11.61,1.76,1.04,3.51,2.07,5.27,3.07,8.88,5.05,18.79,9.68,31.17,14.58,5.65,2.22,11.34,4.31,16.16,6.06.91.33,1.89.6,2.83.86,1.91.53,3.89,1.07,5.64,2.17,1.33.85,2.24,2.44,2.25,3.96,0,1.23-.56,2.28-1.59,2.95-2.16,1.4-5.15.71-7.55.15-.35-.08-.69-.16-1-.23-2.22-.48-4.53-.83-6.76-1.17-1.24-.19-2.49-.37-3.73-.58-7.62-1.27-15.34-2.85-22.94-4.7-.19-.05-17.96-4.46-21.85-7.21-2.4,10.86,9.4,21.37,16.82,26.76h.01c13.34,10.26,30.24,19.07,46.39,24.17,7.94,2.78,14.11-.69,19.74-4.48Z"/>
      <path class="cls-7" d="M418.71,166.38s-.03,0-.04.01c0,0,0,0,0,0,.01,0,.03,0,.04,0Z"/>
      <path class="cls-8" d="M339.94,98.84c1.32-14.51-9.63-27.35-24.44-28.7-14.81-1.34-27.89,9.33-29.2,23.83-1.32,14.51,9.63,27.35,24.44,28.7,14.81,1.34,27.89-9.33,29.2-23.83ZM329.81,91.48c2.81.25,4.88,2.74,4.63,5.55-.25,2.81-2.74,4.88-5.55,4.63s-4.88-2.74-4.63-5.55,2.74-4.88,5.55-4.63ZM305.35,99.52c-5.61-.51-9.74-5.46-9.23-11.07.51-5.61,5.46-9.74,11.07-9.23s9.74,5.46,9.23,11.07c-.51,5.61-5.46,9.74-11.07,9.23Z"/>
      <circle class="cls-5" cx="306.27" cy="89.37" r="10.19" transform="translate(-9.54 44.06) rotate(-8.1)"/>
      <circle class="cls-5" cx="329.34" cy="96.57" r="5.11"/>
      <path class="cls-1" d="M489.27,184.11c-11.73,1.4-23.61,2.15-35.27,3.92-11.71,1.78-23.17,4.9-34.41,8.57-19.9,6.49-39.23,14.8-59.44,20.31-7.55,2.06-20.25,3.65-27.02-1.2-1.24-.88-7.04-5.03-6.04-16.08,2.09-23.05,34.4-25.6,47.06-44.98,14.67-22.47,18.85-50.86,11.84-76.7-4.02-14.81-11.83-28.65-22.71-39.51-11.45-11.43-25.73-18.77-40.75-24.37-5.71-2.13-12.6-3.35-17.9-6.24,1.93-1.02,6.14-.25,8.41-.23,8.63.05,17.27.07,25.9.05,1.52,0,3.05,0,4.55.26,1.96.35,3.8,1.15,5.61,1.97,18.84,8.45,37.27,18.65,53.81,31.04,3.73,2.76,7.51,5.58,10.31,9.29,2.75,3.65,4.41,7.98,6.03,12.25,5.24,13.79,10.56,27.89,11.04,42.63.85,26.07-13.3,49.97-26.96,72.17,28.46-2.54,39.5-2.6,67.96-5.14,1.31-.12,18.55,4.94,19.6,5.73,1.16.88,3.04-5.12,3.06-3.67.11,5.38-.33,9.44-4.66,9.96Z"/>
      <path class="cls-1" d="M272.82,291.45s27.72,55.08,88.6,46.18c60.88-8.9,77.6-44.6,79.86-59.28,2.26-14.68-3.32-24.96-3.32-24.96,0,0,26.47-4.58,26.6,14.51.13,19.09-18.06,81.17-55.26,91.29-37.2,10.12-91.7,16.34-112.11-10.16-20.41-26.51-27.55-55.53-27.55-55.53l3.18-2.04Z"/>
      <path class="cls-7" d="M458.01,253.32c-4.24-2.64-9.35-3.55-14.35-3.72-12.26-.42-24.22,3.26-36.27,5.58-11.01,2.12-22.21,3.11-33.42,3.4-10.01.26-20.77-1.54-30.63.17,19.68,4.39,40.05,5.67,60.13,3.85,9.34-.85,18.38-2.8,27.6-4.38,7.56-1.3,16.03-1.8,21.64,4.45,3.7,8.06,2.72,15.71.27,24.12-7.14,24.5-22.89,51.94-47.13,62.37-22.87,9.85-50.41,7.53-73.73.51-21.01-6.32-40.15-19.04-50.95-38.54-4.17-7.53-7.08-15.52-8.2-24.07-.57-4.35-.75-8.75-.69-13.13.02-1.75-.61-11.56.73-12.47-9.93,6.78-9.45,21.96-8.34,32.48,2.25,21.48,13.01,39.67,29.03,53.86,6.94,6.15,14.74,11.22,23.03,15.35,8,3.98,18.47,9.44,27.44,10.42,23.06,2.53,44.78,2.03,66.34-7.28,15.87-6.85,29.99-21.49,39-35.94,7.77-12.46,15.62-27.19,18.43-42.27.8-4.31,1.19-8.66,1.05-12.98-.28-8.47-3.82-17.3-11.01-21.77Z"/>
      <path class="cls-1" d="M539.18,177.31s7.82,41.56-6.46,93.05c-26.37,95.07-84.06,104.49-121.36,112.28-37.3,7.78-120.24-.98-163.82-26.64-43.57-25.66-73.55-41.4-83.69-82.64-6.33-25.73,3.4-37.53,3.4-37.53,0,0-7.7,2.4-14.33,17.62-6.63,15.22-2.06,74.25,15.23,92.25,17.29,18,70.4,41.12,99.51,48.41,29.11,7.29,127.1,17.73,153.8,13.94,26.7-3.78,45.36-4.26,63.59-17.19,18.23-12.92,46.27-38.29,51.3-45.9,5.03-7.61,27.19-60.5,28.61-81.3,1.42-20.8-5.66-58.97-8.58-78.15-2.91-19.18-13.99-40.66-18.87-41.57-4.88-.9,2.92,28.06,1.67,33.37Z"/>
      <path d="M551.98,153.9c-2.63-5.69-7.13-9.12-11.52-12.15-15.26-10.51-35.25,15.69-41,23.97l-.14.21c-1.34,1.92-2.72,3.91-4.78,4.79-2.48,1.05-5.36.29-8.27-.48-21.8-5.8-44.32-7.45-63.42-4.65-.27.04-1.04.06-1.87.08-1.17.03-2.08.06-2.79.11,3.76-4.03,14.7-16.55,18.82-29.96h-.02s.05-.09.05-.09c6.07-27.68,1.79-55.46-12.05-78.23-14.18-23.33-37.84-42.04-64.92-51.34-26.24-8.99-56.55-8.14-90.1,2.52-3.82,1.21-7.65,2.55-11.39,3.98-35.39,13.53-61,42.93-65.23,74.88-.23,1.78-.6,3.74-2,4.44-.81.41-1.86.28-2.85.13-4.47-.73-8.87-2.2-13.12-3.61-2.56-.85-5.2-1.73-7.85-2.45-8.92-2.41-16.06-2.26-21.82.47-6.11,2.88-10.85,9.15-12.37,16.35-1.4,6.57-.57,19.07,4.57,24.48,10.48,11.05,14.88,12.2,29.86,14.65,2.59,3.56,4.66,7.61,6.67,11.53,2.57,5,5.22,10.17,9.01,14.57,6.62,7.89,14.37,12.81,22.56,18.03,3.13,1.99,6.36,4.05,9.5,6.27l-.03.28c-3.21,1.48-12.72,5.88-19.3,9.1h0s-.13.06-.13.06c-6.43,4.3-12.59,8.86-14.56,10.4-11.57,9.1-20.36,19.73-26.11,31.59-13.11,27.02-11.73,60.93,3.67,90.71,20.72,40.69,55,54.9,103.58,64.65,29.88,6.49,61.48,11.16,99.42,14.6,11.43,1.04,23.43,1.96,36.13,2.79,16.64.84,30.27.45,42.89-1.24,25.68-3.48,47.83-14.19,71.82-34.75,29.12-24.97,49.39-60.48,57.08-99.98,1.98-10.18,3.08-20.7,3.29-31.27.66-32.06-6.7-65.07-21.28-95.45ZM422.36,167.15s-.03,0-.04,0c0,0,0,0,0,0,.01,0,.03,0,.04-.01ZM202.04,168.22h-.01c-7.42-5.41-19.22-15.92-16.82-26.77,3.89,2.75,21.66,7.16,21.85,7.21,7.6,1.85,15.32,3.43,22.94,4.7,1.24.21,2.48.4,3.73.58,2.23.34,4.54.68,6.76,1.17.32.07.65.15,1,.23,2.4.56,5.39,1.25,7.55-.15,1.03-.67,1.59-1.72,1.59-2.95,0-1.52-.91-3.11-2.25-3.96-1.74-1.1-3.72-1.65-5.64-2.17-.95-.26-1.92-.53-2.83-.86-4.82-1.75-10.51-3.84-16.16-6.06-12.38-4.9-22.29-9.53-31.17-14.58-1.76-1-3.51-2.03-5.27-3.07-8.71-5.15-17.72-10.47-27.84-11.61-2.04-.22-4.99-.33-7.06,1.36-1.08.87-1.63,1.93-1.64,3.14-.01,1.64,1.04,3.51,2.83,5.01,4.1,3.44,8.85,5.76,13.44,8,.96.47,1.92.94,2.89,1.42,3.23,1.62,3.39,2.23,3.41,2.25-.82,1.02-12.46-.35-14.92-2.26-6.36-3.48-12.6-7.45-15.16-12.91-2.56-5.47-1.67-10.66,2.51-14.61,6.07-5.74,17.46-7.52,24.37-3.81,1.61.87,3.09,1.78,4.53,2.66,3.91,2.4,7.61,4.68,12.88,5.32,3.89.48,6.34-.03,8.7-.51l.41-.09c4.03-.84,7.68-3.15,10.26-6.5,3.09-4.01,7.65-8.73,8.39-9.45,2.99-2.88,5.95-4.06,8.78-3.54,7.26,1.36,12.78,13.29,16.82,22.01,1.11,2.4,2.07,4.47,2.93,6.04,3.99,7.24,11.35,12.37,18.46,17.32,9.07,6.31,17.63,12.27,18.95,22.05.92,5.25,1.86,15.25-2.32,23.18-2.71,5.28-6.32,9.27-10.76,11.88-5.63,3.79-11.8,7.27-19.74,4.48-16.14-5.11-33.05-13.91-46.39-24.16ZM549.26,298.76c-2.56,8.2-5.74,16.26-9.45,23.95-10.8,22.35-29.1,41.85-54.37,57.97-24.29,15.49-53.03,23.01-85.41,22.36-15.25-.31-30.18-1.66-44.04-3.08l-5.45-.55c-54.4-5.51-122.11-12.38-162.68-53.75-2.44-2.49-4.69-5.2-6.86-7.82l-.67-.81.02-.02c-.35-.42-.69-.83-1.05-1.27-.01-.02-.02-.03-.04-.05-7.24-9.6-12.49-20.34-15.61-31.94-6.9-25.71.03-55.03,17.59-74.64l.11-.11c19.75-23.16,42.82-29.19,44.87-29.69,7.74,2.65,14.72,4.36,21.36,5.22,8.58,1.1,16.33-.02,23.65-3.44,7.01-3.27,12.85-8.85,18.4-17.65,9.27-22.14,5.43-50.12-19.85-60.74-11.29-4.75-16.47-13.48-21.95-22.72-2.99-5.05-6.09-10.27-10.29-14.92-5.4-5.97-13.75-7.59-20.31-3.95-3.84,2.13-7.61,4.57-11.24,7.27,2.97-22.73,21.68-42.73,38.44-53.99,46.66-31.36,111.48-27.15,150.79,9.79,7.21,6.77,13.32,14.42,18.17,22.73,2.53,4.31,4.44,8.39,5.84,12.53,9.72,21.94,7.28,49.6-6.23,70.47-1.08,1.65-2.19,3.23-3.29,4.66l-.11.12c-4.35,5.71-9.7,10.98-15.96,15.72-15.28,14.14-27.4,22.8-35.04,25.05l-2.54.73-.39.47c-.11,1,.01,1.94.36,2.78.24.59.6,1.14,1.08,1.64l.37.17c22.49,1.06,47.47-21.17,49.59-23.1l14.5-1.07c5.07-.49,10.28-.31,14.89-.16,1.26.04,2.46.08,3.59.1,14.21.3,28.37,2.14,42.09,5.49l1.27.32c5.3,1.33,11.9,2.99,16.92-.36,2.23-1.49,4-3.55,5.71-5.54l.34-.4c1.14-1.33,2.38-2.87,3.7-4.51,5.61-6.98,12.58-15.66,19.65-17.94l.26-.07c.15-.04.29-.09.44-.12,6.93-1.58,10.61,9.55,12.38,14.91l.19.46c1.97,2.4,3.13,6.92,4.06,10.55.34,1.34.67,2.61,1,3.67,12.21,38.78,12.63,78.65,1.21,115.29Z"/>
      <ellipse class="cls-13" cx="282.04" cy="39.6" rx="26.88" ry="11.81" transform="translate(9.43 122.05) rotate(-24.82)"/>
    </g>
    <g>
      <g>
        <g>
          <path d="M360.48,551.12c-.41,0-.82,0-1.24-.02-7.45-.22-14.21-2.82-20.12-7.71-.22-.18-.44-.36-.66-.54l-.15-.13c-.21-.17-.43-.35-.64-.52l-.16-.14c-.23-.18-.45-.37-.68-.56l-.12-.1c-.22-.17-.43-.35-.65-.53l-.15-.13c-.22-.18-.45-.36-.67-.55l-.13-.11c-.22-.18-.44-.36-.67-.55l-.14-.12c-.22-.17-.44-.35-.65-.54l-.15-.12c-.23-.18-.45-.36-.67-.55l-.14-.12c-.22-.17-.43-.35-.65-.53l-.15-.13c-.22-.17-.44-.35-.65-.53l-.15-.12c-.22-.17-.43-.35-.64-.53l-.16-.13c-.22-.17-.43-.35-.64-.53l-.16-.14c-.22-.17-.43-.35-.65-.53l-.16-.13c-.22-.17-.44-.36-.65-.54l-.15-.12c-.22-.17-.43-.35-.64-.52l-.16-.14c-.23-.18-.45-.37-.68-.56l-.13-.11c-.22-.18-.44-.36-.66-.55l-.14-.11c-.22-.17-.43-.35-.64-.53l-.16-.13c-.22-.17-.43-.35-.65-.53l-.15-.13c-.22-.17-.44-.35-.65-.54l-.15-.13c-.22-.18-.44-.36-.66-.54l-.14-.12c-.22-.17-.43-.35-.65-.53l-.15-.12c-.23-.18-.45-.36-.67-.55l-.14-.12c-.23-.18-.45-.36-.67-.55l-.13-.11c-.22-.17-.43-.35-.65-.53l-.15-.13c-.22-.18-.45-.36-.67-.55l-.14-.12c-.23-.18-.45-.37-.67-.56l-.12-.1c-.22-.17-.44-.35-.65-.54l-.15-.12c-.23-.18-.45-.36-.67-.55l-.14-.11c-.22-.17-.44-.35-.65-.54l-.14-.12c-4.97-3.89-9.25-9.33-12.75-16.19l-31.71-.95-5.66,12.53c-8.36,18.5-20.81,28.28-35.98,28.28-.34,0-.68,0-1.03-.01-8.51-.25-16.15-3.05-22.12-8.1-.27-.22-.54-.44-.8-.66-.27-.22-.54-.44-.8-.66-.27-.22-.54-.44-.8-.66-.27-.22-.54-.44-.81-.67-.27-.21-.54-.44-.8-.66-.27-.22-.54-.44-.81-.67-.27-.22-.54-.44-.8-.66-.27-.22-.54-.44-.8-.66-.27-.22-.54-.44-.8-.66-.27-.22-.54-.44-.8-.66-.27-.22-.54-.44-.8-.66-.27-.22-.54-.44-.8-.66-.27-.22-.54-.44-.8-.66-.27-.22-.54-.44-.8-.66-.27-.22-.54-.44-.8-.66-.27-.22-.54-.44-.81-.66-.27-.22-.54-.44-.8-.66-.27-.22-.54-.44-.8-.66-.27-.22-.54-.44-.8-.66-.27-.22-.54-.44-.8-.66-.27-.21-.54-.44-.8-.66-.27-.22-.54-.44-.81-.67-.27-.22-.54-.44-.8-.66-.27-.22-.54-.44-.81-.67-.27-.21-.54-.44-.8-.66-.27-.22-.54-.44-.8-.66-.27-.22-.54-.44-.81-.67-.27-.22-.54-.44-.8-.66-.27-.22-.54-.44-.8-.66-.27-.22-.54-.44-.8-.66-7.69-6.08-11.93-15.13-11.64-24.83.16-5.29,2.73-12.98,4.87-18.53-12.59,4.84-26.96,7.28-42.9,7.28-2,0-4.04-.04-6.08-.12l-21.11-.81-1.15,29.82c-.77,20.12-14.58,32.63-36.04,32.63-.71,0-1.44-.01-2.18-.04-9.92-.38-18.42-3.33-24.6-8.54-.27-.21-.53-.44-.8-.66-.23-.18-.52-.42-.81-.67-.27-.22-.54-.44-.8-.66-.27-.22-.54-.44-.81-.66-.27-.21-.53-.44-.8-.66-.27-.21-.54-.44-.8-.66-.27-.22-.54-.44-.81-.66-.27-.21-.53-.44-.8-.66-.28-.22-.54-.44-.81-.67-.27-.21-.54-.44-.8-.66-.27-.22-.54-.44-.8-.66-.27-.22-.54-.44-.8-.66-.27-.22-.54-.44-.8-.66-.27-.22-.54-.44-.8-.66-.27-.22-.54-.44-.8-.66-.27-.22-.54-.44-.8-.66-.27-.21-.53-.44-.8-.66-.27-.22-.54-.44-.81-.67-.27-.22-.54-.44-.8-.66-.27-.22-.54-.44-.8-.66-.27-.22-.54-.44-.8-.66-.27-.22-.54-.44-.81-.67-.27-.22-.54-.44-.8-.66-.27-.21-.54-.44-.8-.66-.27-.22-.54-.44-.81-.67-.27-.22-.54-.44-.8-.66-.27-.22-.54-.44-.8-.66-.27-.22-.54-.44-.81-.66-.27-.22-.54-.44-.8-.66-.27-.22-.54-.44-.8-.66-1.08-.85-2-1.66-2.82-2.49-3.93-3.96-6.62-8.84-7.99-14.51-.28-1.15-.5-2.37-.68-3.73-.29-2.23-.4-4.53-.31-6.82l5.7-147.95c.59-15.35,8.95-26.58,22.94-30.81,3.99-1.21,8.39-1.82,13.1-1.82.71,0,1.44.01,2.17.04l58.02,2.23c3.45.13,6.96.39,10.42.75l1.08.12c4.64.53,9.2,1.29,13.58,2.25.74.17,1.47.33,2.2.51,2.98.71,5.65,1.45,8.14,2.24,2.97.94,5.88,2.01,8.67,3.17,6.86,2.86,13.16,6.4,18.73,10.52,1.16.86,2.36,1.81,3.67,2.9.24.19,1.32,1.09,1.61,1.33.23.18.51.42.8.66.24.19,2.13,1.75,2.41,1.99.23.18.51.42.8.66.23.19.52.42.8.66.23.18.52.42.81.66.23.18.51.42.8.66.23.18.51.42.8.66.23.19.52.42.8.66.23.19,2.12,1.75,2.41,1.99.23.19.52.43.81.67.22.18.51.41.79.65.24.2,3.74,3.08,4.02,3.32.23.18.51.42.79.65.24.2,1.33,1.09,1.61,1.33.23.19.52.42.8.66.23.18.52.42.8.66.24.19.52.43.8.66.23.19.52.42.8.66.23.18.51.42.8.66,8.04,6.52,14.46,14.43,18.93,23.27l6.58-15.84c10.15-23.34,24.8-33.27,49.03-33.27.86,0,1.75.01,2.64.04,14.03.42,24.92,3.97,33.26,10.85.21.17.42.34.63.52l.19.16c.21.16.41.33.61.5l.19.16c.22.17.43.35.64.53l.17.14c.21.17.41.33.62.51l.18.15c.21.16.41.33.61.5l.19.16c.21.17.41.34.62.51l.19.16c.22.17.43.35.64.53l.16.13c.21.17.42.34.62.51l.18.15c.21.17.42.34.62.51l.18.15c.21.17.41.34.62.51l.19.15c.21.17.41.33.62.5l.19.16c.21.17.41.33.61.5l.19.16c.22.17.43.35.65.53l.16.13c.21.16.41.33.61.5l.19.16c.21.17.41.33.62.51l.19.16c.22.17.43.35.64.52l.17.14c.21.17.41.34.62.51l.19.16c.21.16.4.33.6.5l.2.16c.21.17.42.34.62.51l.18.15c.21.17.42.34.62.51l.18.15c.21.17.41.34.62.51l.19.16c.21.16.41.33.61.5l.2.16c.21.17.41.34.62.51l.18.16c.21.17.42.34.62.51l.18.15c.21.17.41.33.62.51l.19.16c.21.17.42.34.63.52l.18.15c.21.17.41.33.61.5l.18.15c.21.17.41.34.62.51l.19.16c.21.17.42.34.62.51l.18.15c.21.17.41.34.62.51l.18.15c7.48,5.86,12.93,14.14,17.12,26.03l38.72,111.51c.78,2.05,6.42,17.17,6.16,25.69-.51,17.26-14.95,30.27-33.58,30.27h0ZM108.03,400.13c1.28-.16,2.49-.41,3.65-.76,1.67-.5,3.2-1.19,4.55-2.06.54-.35,1.09-.77,1.72-1.33.36-.32.7-.65,1.02-1,.55-.59.97-1.12,1.29-1.61.13-.2.25-.4.37-.6l-12.3-.47-.3,7.83Z"/>
          <path d="M46.77,313.11c.65,0,1.31.01,1.98.04l58.02,2.23c3.46.13,6.82.38,10.08.73.35.04.7.08,1.05.12,4.55.52,8.9,1.25,13.07,2.16.71.16,1.41.32,2.11.49,2.68.64,5.28,1.35,7.79,2.14,2.86.91,5.62,1.92,8.26,3.02,6.6,2.76,12.5,6.1,17.69,9.93,1.19.88,2.33,1.79,3.44,2.72.27.22.54.44.8.66.27.22.54.44.8.66.27.22.54.44.8.66.27.22.54.44.8.66.27.22.54.44.8.66.27.22.54.44.8.66.27.22.54.44.8.66.27.22.54.44.8.66.27.22.54.44.8.66.27.22.54.44.8.66.27.22.54.44.8.66.27.22.54.44.8.66.27.22.54.44.8.66.27.22.54.44.8.66.27.22.54.44.8.66.27.22.54.44.8.66.27.22.54.44.8.66.27.22.54.44.8.66.27.22.54.44.8.66.27.22.54.44.8.66.27.22.54.44.8.66.27.22.54.44.8.66.27.22.54.44.8.66.27.22.54.44.8.66.27.22.54.44.8.66.27.22.54.44.81.66.27.22.54.44.8.66.27.22.54.44.8.66.27.22.54.44.8.66.27.22.54.44.8.66,11,8.92,18.41,20.18,22.02,32.75l11.32-27.24c8.19-18.84,19.86-30.18,44.41-30.18.81,0,1.65.01,2.49.04,13.49.4,23.12,3.83,30.27,9.75.27.21.54.44.8.66.27.21.54.44.8.66.27.21.54.44.8.66.27.21.54.44.8.66.27.21.54.44.8.66.27.21.54.44.8.66.27.21.53.44.8.66.27.21.54.44.8.66.27.21.54.44.8.66.27.21.54.44.8.66.27.21.53.44.8.66.27.21.54.44.8.66.27.21.54.44.8.66.27.21.54.44.8.66.27.21.54.44.8.66.27.21.54.44.8.66.27.21.54.44.8.66.27.21.54.44.8.66.27.21.54.44.8.66.27.21.53.44.8.66.27.21.54.44.8.66.27.21.54.44.8.66.27.21.54.44.8.66.27.21.54.44.8.66.27.21.54.44.8.66.27.21.54.44.8.66.27.21.54.44.8.66.27.21.54.44.8.66.27.21.54.44.8.66.27.21.54.44.8.66,7.23,5.64,11.99,13.73,15.55,23.8l38.73,111.56s6.1,15.95,5.86,23.83c-.42,14.14-12.08,25.42-28.58,25.42-.36,0-.73,0-1.09-.02-6.59-.2-12.29-2.58-17.13-6.6-.27-.21-.54-.44-.8-.66-.27-.21-.54-.44-.8-.66-.27-.21-.54-.44-.8-.66-.27-.21-.54-.44-.8-.66-.27-.21-.53-.44-.8-.66-.27-.21-.54-.44-.8-.66-.27-.21-.54-.44-.8-.66-.27-.21-.54-.44-.8-.66-.27-.21-.54-.44-.8-.66-.27-.21-.54-.44-.8-.66-.27-.21-.54-.44-.8-.66-.27-.21-.54-.44-.8-.66-.27-.21-.54-.44-.8-.66-.27-.21-.54-.44-.8-.66-.27-.21-.54-.44-.8-.66-.27-.21-.54-.44-.8-.66-.27-.21-.54-.44-.8-.66-.27-.21-.54-.44-.8-.66-.27-.21-.54-.44-.8-.66-.27-.21-.54-.44-.8-.66-.27-.21-.54-.44-.8-.66-.27-.21-.54-.44-.8-.66-.27-.21-.54-.44-.8-.66-.27-.21-.54-.44-.8-.66-.27-.21-.54-.44-.8-.66-.27-.21-.54-.44-.8-.66-.27-.21-.54-.44-.8-.66-.27-.21-.54-.44-.8-.66-.27-.21-.54-.44-.8-.66-.27-.21-.54-.44-.8-.66-5.2-4.05-9.43-9.99-12.7-17.21l-38.08-1.13-7.03,15.56c-6.89,15.24-17.41,25.34-31.42,25.34-.29,0-.58,0-.88-.01-7.71-.23-14.26-2.85-19.1-6.97-.27-.22-.54-.44-.8-.66-.27-.22-.54-.44-.8-.66-.27-.22-.54-.44-.8-.66-.27-.22-.54-.44-.8-.66-.27-.21-.54-.44-.8-.66-.27-.22-.54-.44-.8-.66-.27-.22-.54-.44-.8-.66-.27-.22-.54-.44-.8-.66-.27-.22-.54-.44-.8-.66-.27-.21-.54-.44-.8-.66-.27-.22-.54-.44-.8-.66-.27-.22-.54-.44-.8-.66-.27-.22-.54-.44-.8-.66-.27-.22-.54-.44-.8-.66-.27-.22-.54-.44-.8-.66-.27-.22-.54-.44-.8-.66-.27-.22-.54-.44-.8-.66-.27-.22-.54-.44-.8-.66-.27-.22-.54-.44-.8-.66-.27-.22-.54-.44-.8-.66-.27-.22-.54-.44-.8-.66-.27-.22-.54-.44-.8-.66-.27-.22-.54-.44-.8-.66-.27-.22-.54-.44-.8-.66-.27-.22-.54-.44-.8-.66-.27-.22-.54-.44-.8-.66-.27-.22-.54-.44-.8-.66-.27-.22-.54-.44-.8-.66-.27-.22-.54-.44-.8-.66-.27-.22-.54-.44-.8-.66-6.38-5.02-10.06-12.54-9.81-20.81.23-7.88,7.27-23.44,7.27-23.44l2.18-5.26c-13.71,7.77-31.32,12.3-52.48,12.3-1.93,0-3.9-.04-5.89-.11l-26.11-1.01-1.34,34.81c-.65,16.83-11.94,27.82-31.04,27.82-.65,0-1.31-.01-1.98-.04-9.16-.35-16.44-3.02-21.64-7.42-.27-.21-.54-.44-.8-.66-.27-.21-.54-.44-.8-.66-.27-.21-.54-.44-.8-.66-.28-.21-.54-.44-.8-.66-.27-.21-.54-.44-.8-.66-.28-.21-.54-.44-.8-.66-.27-.21-.54-.44-.8-.66-.28-.21-.54-.44-.8-.66-.27-.21-.54-.44-.8-.66-.27-.21-.54-.44-.8-.66-.28-.21-.54-.44-.8-.66-.28-.21-.54-.44-.8-.66-.27-.21-.54-.44-.8-.66-.28-.21-.54-.44-.8-.66-.28-.21-.54-.44-.8-.66-.28-.21-.54-.44-.8-.66-.27-.21-.54-.44-.8-.66-.27-.21-.54-.44-.8-.66-.27-.21-.54-.44-.8-.66-.28-.21-.54-.44-.8-.66-.27-.21-.54-.44-.8-.66-.27-.21-.54-.44-.8-.66-.28-.21-.54-.44-.8-.66-.28-.21-.54-.44-.8-.66-.27-.21-.54-.44-.8-.66-.27-.21-.54-.44-.8-.66-.27-.21-.54-.44-.8-.66-.27-.21-.54-.44-.8-.66-.27-.21-.54-.44-.8-.66-.28-.21-.54-.44-.8-.66-.86-.67-1.68-1.37-2.43-2.13-3.28-3.3-5.53-7.42-6.68-12.17-.25-1.04-.44-2.11-.58-3.21-.25-1.91-.35-3.9-.27-5.98l5.7-147.95c.5-13.06,7.41-22.59,19.39-26.22,3.47-1.05,7.36-1.6,11.65-1.6M104.66,405.33c3.09,0,5.92-.41,8.44-1.17,2.17-.65,4.12-1.55,5.83-2.65.84-.54,1.6-1.15,2.31-1.78.49-.43.96-.89,1.39-1.36.66-.71,1.27-1.46,1.79-2.25,1.37-2.09,2.26-4.42,2.63-6.9.06-.4.08-.8.11-1.21l-23.65-.91-.7,18.18.48.02c.46.02.91.03,1.36.03M46.77,303.11c-5.19,0-10.09.68-14.54,2.03-15.92,4.81-25.82,18.05-26.49,35.41L.03,488.49c-.1,2.58.02,5.16.35,7.67.2,1.54.46,2.93.78,4.25,1.59,6.57,4.72,12.24,9.3,16.86.94.95,2,1.88,3.21,2.84.26.22.53.44.79.65.26.22.53.44.8.66.27.22.53.45.8.66.27.23.53.45.8.66.27.23.53.45.8.66.27.23.53.45.81.66.27.23.53.45.8.66.26.22.53.44.8.66.27.22.53.45.8.66.27.23.53.45.8.66.27.22.53.45.8.66.27.23.53.45.8.66.27.23.53.45.8.66.27.22.53.44.8.66.27.22.53.45.81.67.27.23.53.45.8.66.27.23.53.45.8.66.26.22.53.44.8.66.27.23.54.45.8.66.27.23.53.45.81.66.27.22.53.44.8.66.27.22.53.45.8.66.27.23.53.45.8.66.27.22.53.45.8.66.27.23.53.45.8.66.27.22.53.44.8.66.26.22.53.45.8.66.26.22.53.45.8.66.27.22.53.45.8.66.27.23.54.45.81.67,7.03,5.9,16.56,9.24,27.57,9.66.79.03,1.59.05,2.37.05,24.05,0,40.16-14.69,41.04-37.43l.96-24.82,16.11.62c2.1.08,4.21.12,6.27.12,12.6,0,24.29-1.48,34.95-4.42-1.05,3.69-1.83,7.4-1.92,10.51-.34,11.27,4.57,21.78,13.47,28.85.26.22.53.44.8.66.26.22.53.45.8.66.26.22.53.44.8.66.27.22.53.45.8.66.26.22.53.44.8.66.26.22.53.44.8.66.27.22.53.45.81.66.26.22.53.44.8.66.27.22.53.45.81.66.26.22.53.44.8.66.26.22.53.44.8.66.26.22.53.44.8.66.26.22.53.45.8.66.26.22.53.44.8.66.27.22.53.45.81.66.26.22.53.45.8.66.26.22.53.44.8.66.26.22.53.44.8.66.26.22.53.45.8.66.26.22.53.45.8.66.26.22.53.44.8.66.26.22.53.44.8.66.27.22.53.45.81.66.26.22.53.44.8.66.26.22.53.44.8.66.26.22.53.44.8.66.27.22.53.45.8.66.26.22.53.44.8.66.27.22.53.45.8.66.27.22.53.45.81.66,6.83,5.75,15.52,8.95,25.14,9.23.39.01.79.02,1.18.02,17.04,0,31.43-11.09,40.53-31.22l4.29-9.49,25.49.76c3.55,6.27,7.78,11.35,12.63,15.16l.07.06c.24.2.47.4.72.59l.09.08c.24.2.47.39.71.58l.08.07c.24.2.48.4.72.59l.09.07c.24.2.47.4.72.59l.09.07c.24.2.47.4.71.59l.09.07c.24.2.47.4.71.59l.09.08c.24.2.47.39.71.58l.08.07c.24.2.48.4.73.6l.1.08c.23.2.47.39.7.58l.08.07c.24.2.48.4.72.59l.09.08c.24.2.47.4.71.59l.09.07c.24.2.47.4.71.59l.09.07c.24.2.47.4.71.59l.09.08c.24.2.47.4.71.59l.09.07c.23.2.47.39.71.58l.09.08c.24.2.47.4.71.59l.09.07c.24.2.48.4.72.59l.09.08c.24.2.47.4.71.59l.1.08c.23.2.47.39.7.58l.09.07c.24.2.48.4.72.59l.08.07c.24.2.47.4.72.59l.09.08c.24.2.47.4.71.59l.09.08c.24.2.47.39.71.59l.09.07c.24.2.47.4.71.59l.09.08c.24.2.47.4.71.59l.08.07c.24.2.48.4.72.59l.08.07c.24.2.48.4.72.59l.09.08c.24.2.47.39.71.58l.09.07c.24.2.47.4.71.59l.09.08c.24.2.49.41.73.6,6.77,5.6,14.54,8.56,23.11,8.82.46.01.93.02,1.39.02,21.4,0,37.98-15.1,38.58-35.12.28-9.26-5.2-24.25-6.46-27.55l-38.68-111.42c-4.53-12.84-10.47-21.82-18.7-28.3l-.11-.09c-.22-.19-.45-.38-.68-.56l-.12-.1c-.23-.19-.46-.38-.69-.57l-.12-.1c-.23-.19-.45-.38-.69-.56l-.12-.1c-.23-.19-.45-.38-.68-.56l-.12-.1c-.23-.19-.45-.38-.68-.56l-.12-.1c-.22-.19-.45-.38-.68-.56l-.12-.1c-.23-.19-.45-.38-.69-.56l-.12-.1c-.22-.19-.45-.38-.68-.56l-.13-.1c-.22-.19-.45-.37-.68-.56l-.12-.1c-.23-.19-.45-.38-.68-.56l-.12-.1c-.23-.19-.45-.38-.68-.56l-.12-.1c-.22-.19-.45-.37-.68-.56l-.13-.11c-.22-.19-.45-.38-.68-.56l-.12-.1c-.22-.19-.45-.38-.68-.56l-.13-.11c-.22-.19-.45-.37-.68-.56l-.12-.1c-.22-.19-.45-.38-.68-.56l-.12-.1c-.22-.19-.45-.37-.67-.55l-.12-.1c-.23-.19-.45-.38-.68-.56l-.12-.1c-.22-.19-.45-.38-.68-.56l-.12-.1c-.22-.19-.45-.38-.68-.56l-.12-.1c-.23-.19-.45-.38-.68-.56l-.11-.1c-.23-.19-.46-.38-.69-.57l-.12-.1c-.22-.19-.45-.37-.68-.56l-.12-.1c-.22-.19-.45-.38-.68-.56l-.12-.1c-.22-.19-.45-.38-.68-.56l-.12-.1c-.23-.19-.45-.38-.68-.56l-.12-.1c-.23-.19-.45-.38-.69-.56l-.12-.1c-.22-.19-.45-.38-.68-.56l-.12-.1c-.23-.19-.45-.38-.68-.56l-.12-.1c-.23-.2-.47-.39-.71-.58-9.23-7.59-21.09-11.51-36.26-11.96-.94-.03-1.87-.04-2.79-.04-33.54,0-46.25,19.34-53.58,36.19l-.03.08-.03.08-2.77,6.68c-4.12-5.93-9.15-11.34-14.97-16.07-.27-.22-.53-.44-.8-.66-.26-.22-.53-.44-.8-.66-.27-.22-.53-.44-.81-.66-.27-.22-.53-.44-.81-.66-.27-.22-.53-.44-.8-.66-.27-.22-.53-.44-.8-.66-.27-.22-.53-.44-.8-.66-.27-.22-.54-.44-.81-.66-.27-.22-.53-.44-.8-.66-.27-.22-.53-.44-.8-.66-.26-.22-.53-.44-.8-.66-.26-.22-.53-.44-.8-.66-.27-.22-.53-.44-.81-.66-.27-.22-.54-.45-.81-.67-.27-.22-.53-.44-.8-.66-.26-.22-.53-.44-.8-.66-.27-.22-.53-.44-.81-.66-.26-.22-.53-.44-.8-.66-.27-.22-.53-.44-.8-.66-.27-.22-.53-.44-.8-.66-.26-.22-.53-.44-.8-.66-.27-.22-.54-.45-.81-.67-.26-.22-.53-.44-.8-.66-.27-.22-.54-.44-.81-.67-.27-.22-.53-.44-.8-.66-.27-.22-.54-.44-.81-.66-.27-.22-.53-.44-.8-.66-.27-.22-.53-.44-.8-.66-.27-.22-.53-.44-.8-.66-.27-.22-.53-.44-.8-.66-1.36-1.14-2.62-2.13-3.85-3.04-5.89-4.36-12.55-8.1-19.78-11.11-2.92-1.22-5.97-2.34-9.08-3.33-2.62-.83-5.4-1.6-8.49-2.34-.76-.18-1.52-.36-2.29-.53-4.55-1-9.29-1.79-14.08-2.33l-.16-.02c-.32-.04-.64-.07-.97-.11-3.57-.38-7.19-.64-10.76-.78l-58.02-2.23c-.79-.03-1.59-.05-2.37-.05h0Z"/>
        </g>
        <g>
          <path d="M459.76,546.82c-9.43,0-17.58-2.69-23.59-7.79-.27-.22-.54-.44-.8-.66-.27-.21-.54-.44-.8-.66-.27-.21-.54-.44-.8-.66-.27-.22-.54-.44-.81-.67-.27-.21-.54-.44-.8-.66-.27-.22-.54-.44-.8-.66-.27-.22-.54-.44-.81-.67-.27-.21-.54-.44-.8-.66-.27-.22-.54-.44-.8-.66-.27-.22-.54-.44-.8-.66-.27-.22-.54-.44-.81-.67-.27-.21-.54-.44-.8-.66-.27-.22-.54-.44-.8-.66-.27-.22-.54-.44-.8-.66-.27-.21-.54-.43-.8-.66-.27-.22-.54-.44-.8-.66-.27-.22-.54-.44-.8-.66-.27-.22-.54-.44-.8-.66-.27-.21-.54-.44-.8-.66-.27-.22-.54-.44-.8-.66-.27-.22-.54-.44-.8-.66-.27-.21-.54-.44-.8-.66-.27-.22-.54-.44-.81-.66-.27-.22-.54-.44-.8-.66-.27-.22-.54-.44-.8-.66-.27-.21-.54-.44-.8-.66-.27-.22-.54-.44-.8-.66-.27-.22-.54-.44-.8-.66-.27-.21-.54-.44-.8-.66-.27-.22-.54-.44-.8-.66-6.92-5.46-10.93-13.6-11.6-23.54l-5.91-87.6-2.39.16c-1.21.08-2.42.12-3.59.12-9.43,0-17.59-2.69-23.59-7.79-.27-.22-.54-.44-.81-.66-.27-.22-.54-.44-.81-.67-.27-.21-.54-.44-.8-.66-.27-.22-.54-.44-.8-.66-.27-.21-.54-.44-.8-.66-.27-.22-.54-.44-.8-.66-.27-.22-.54-.44-.8-.66-.27-.22-.54-.44-.8-.66-.27-.22-.54-.44-.8-.66-.27-.22-.54-.44-.8-.66-.27-.22-.54-.44-.81-.66-.27-.22-.54-.44-.8-.66-.27-.21-.54-.44-.8-.66-.27-.21-.54-.44-.8-.66-.27-.22-.54-.44-.8-.66-.27-.22-.54-.44-.8-.66-.27-.21-.54-.44-.8-.66-.27-.22-.54-.44-.81-.67-.27-.22-.54-.44-.8-.66-.27-.22-.54-.44-.8-.66-.27-.21-.54-.44-.8-.66-.27-.21-.54-.44-.8-.66-.27-.22-.54-.44-.8-.66-.27-.22-.54-.44-.8-.66-.27-.22-.54-.44-.81-.67-.27-.22-.54-.44-.8-.66-.27-.21-.54-.44-.8-.66-.27-.22-.54-.44-.8-.66-.27-.22-.54-.44-.81-.67-.27-.21-.53-.43-.8-.66-6.92-5.46-10.94-13.6-11.61-23.54-1.35-20.02,11.81-33.91,33.54-35.37l123.08-8.3c1.21-.08,2.42-.12,3.59-.12,9.43,0,17.58,2.69,23.59,7.79.27.22.54.44.8.66.27.22.54.44.81.67.27.21.54.44.8.66.27.21.54.44.8.66.27.22.54.44.8.66.27.22.54.44.81.66.27.22.54.44.8.66.27.21.54.44.8.66.27.22.54.44.81.66.27.22.54.44.8.66.27.21.54.44.8.66.27.22.54.44.8.66.27.22.54.44.8.66.27.21.54.44.8.66.27.22.54.44.8.66.27.22.54.44.8.66.27.21.54.44.8.66.27.22.54.44.8.66.27.21.54.44.8.66.27.21.54.44.8.66.27.22.54.44.81.66.27.21.54.44.8.66.27.22.54.44.81.66.27.22.54.44.8.66.27.21.54.44.8.66.27.22.54.44.81.66.27.21.54.43.8.66.27.22.54.44.8.66.27.22.54.44.81.67.27.22.54.44.8.66.56.44,1.11.91,1.63,1.39,16.53-12.33,35.97-18.82,56.5-18.82,22.55,0,44.51,8.19,61.85,23.07l.26.21c.18.15.36.3.54.45l.25.2c.19.15.37.3.56.46l.26.21c.18.15.36.3.54.45l.26.22c.18.15.36.3.54.45l.24.2c.19.15.38.31.57.47l.23.19c.19.16.38.31.57.47l.24.2c.19.15.37.3.56.46l.24.2c.19.15.37.3.56.46l.24.2c.19.15.37.3.56.46l.26.21c.18.15.36.3.54.45l.26.22c.18.15.36.3.54.45l.23.19c.19.16.39.32.58.48l.24.2c.18.15.37.3.55.45l.26.22c.18.15.36.3.54.45l.24.2c.19.15.38.31.57.47l.23.19c.19.16.38.31.57.47l.24.2c.19.15.37.3.56.46l.26.21c.18.15.36.29.53.44l.26.21c.18.15.37.3.55.46l.25.2c.19.15.37.3.56.46l.25.2c.19.15.38.3.56.46l.25.2c.19.15.37.3.56.46l.24.19c.19.16.38.31.57.48l.23.19c.19.15.37.3.56.46l.25.2c.19.15.37.3.55.46l.22.18c.2.16.4.32.59.49l.24.19c.19.15.37.3.56.46l.25.21c.18.15.37.3.55.45l.23.19c.19.16.39.32.58.48l.23.19c.19.16.38.31.57.47,22.81,19.14,35.92,47.58,35.92,77.99,0,55.36-43.5,100.4-96.97,100.4-22.55,0-44.52-8.19-61.85-23.07l-.24-.2c-.19-.15-.37-.3-.56-.46l-.26-.21c-.18-.15-.36-.29-.53-.44l-.25-.2c-.19-.15-.38-.31-.56-.47l-.25-.2c-.19-.15-.38-.31-.56-.46l-.22-.18c-.19-.16-.39-.32-.58-.48l-.24-.2c-.19-.15-.37-.3-.56-.46l-.23-.19c-.19-.16-.38-.31-.57-.48l-.23-.19c-.19-.15-.38-.31-.56-.47l-.25-.2c-.19-.15-.37-.3-.56-.46l-.24-.2c-.19-.15-.38-.3-.56-.46l-.26-.21c-.18-.15-.36-.3-.54-.45l-.26-.21c-.18-.15-.37-.3-.55-.45l-.25-.21c-.18-.15-.37-.3-.55-.46l-.24-.19c-.19-.16-.38-.31-.57-.47l-.24-.19c-.19-.15-.37-.3-.56-.46l-.26-.21c-.19-.15-.38-.31-.56-.46l-.23-.19c-.19-.16-.38-.31-.57-.47l-.24-.19c-.19-.15-.37-.3-.56-.46l-.26-.22c-.18-.15-.36-.29-.54-.44l-.26-.21c-.19-.15-.38-.31-.56-.46l-.23-.19c-.19-.15-.38-.31-.56-.47l-.25-.2c-.19-.15-.37-.3-.55-.46l-.25-.2c-.19-.15-.38-.3-.56-.46l-.24-.2c-.19-.15-.38-.31-.56-.47l-.24-.19c-.19-.15-.37-.3-.56-.46l-.24-.2c-.19-.15-.38-.31-.56-.47l-.23-.19c-.19-.16-.38-.31-.57-.47l-.23-.19c-.19-.15-.38-.31-.56-.47l-.25-.2c-.18-.15-.37-.3-.55-.46l-.24-.2c-.19-.16-.38-.31-.57-.47-22.81-19.14-35.92-47.58-35.92-77.98,0-7.81.87-15.55,2.58-23.09l-11.46.77,7.4,109.7c1.35,20.02-11.81,33.91-33.54,35.37-1.21.08-2.42.12-3.59.12ZM591.36,454.09c1.34.18,2.67.27,3.98.27,16.78,0,30.42-13.65,30.42-30.42,0-3.3-.53-6.53-1.57-9.63-1.34-.18-2.67-.27-3.98-.27-16.78,0-30.42,13.65-30.42,30.42,0,3.3.53,6.53,1.57,9.63Z"/>
          <path d="M489.53,318.33c8.54,0,15.44,2.4,20.42,6.66.27.21.54.44.8.66.27.21.54.44.8.66.27.21.54.44.8.66.27.21.54.44.8.66.27.21.54.44.8.66.27.21.54.44.8.66.27.21.54.44.8.66.27.21.54.44.8.66.27.21.54.44.8.66.27.21.54.44.8.66.27.21.54.44.8.66.27.21.54.44.8.66.27.21.54.44.8.66.27.21.54.44.8.66.27.21.54.44.8.66.27.21.54.44.8.66.27.21.54.44.8.66.27.21.54.44.8.66.27.21.54.44.8.66.27.21.54.44.8.66.27.21.54.44.8.66.27.21.54.44.8.66.27.21.54.44.8.66.27.21.54.44.8.66.27.21.54.44.8.66.27.21.54.44.8.66.27.21.54.44.8.66.27.21.54.44.8.66.27.21.54.44.8.66.27.21.54.44.8.66,1.61,1.26,3.03,2.69,4.26,4.3,15.68-12.88,35.49-20.6,57.04-20.6s42.68,8.21,58.59,21.87c.27.22.54.44.8.66.27.22.54.44.8.66.27.22.54.44.8.66.27.22.54.44.8.66.27.22.54.44.8.66.27.22.54.44.8.66.27.22.54.43.8.66.27.22.54.44.8.66.27.22.54.44.8.66.27.22.54.44.8.66.27.22.54.44.8.66.27.22.54.44.8.66.27.22.54.44.8.66.27.22.54.44.8.66.27.22.54.44.8.66.27.22.54.44.8.66.27.22.54.44.8.66.27.22.54.44.8.66.27.22.54.44.8.66.27.22.54.43.8.66.27.22.54.44.8.66.27.22.54.44.8.66.27.22.54.44.8.66.27.22.54.44.8.66.27.22.54.43.8.66.27.22.54.44.81.66.27.22.54.43.8.66.27.22.54.44.8.66.27.22.54.44.8.66.27.22.54.44.8.66,20.84,17.49,34.18,44.22,34.18,74.19,0,52.69-41.17,95.4-91.97,95.4-22.27,0-42.68-8.21-58.59-21.87-.27-.22-.54-.44-.8-.66-.27-.22-.54-.44-.8-.66-.27-.22-.54-.44-.8-.66-.27-.22-.54-.44-.8-.66-.26-.22-.54-.43-.8-.66-.27-.22-.54-.44-.8-.66-.27-.22-.54-.44-.8-.66-.27-.22-.54-.44-.8-.66-.27-.22-.54-.44-.8-.66-.27-.22-.54-.43-.8-.66-.27-.22-.54-.44-.8-.66-.27-.22-.54-.44-.8-.66-.26-.22-.54-.44-.8-.66-.27-.22-.54-.44-.8-.66-.27-.22-.54-.44-.8-.66-.27-.22-.54-.44-.8-.66-.27-.22-.54-.44-.8-.66-.27-.22-.54-.44-.8-.66-.27-.22-.54-.44-.8-.66-.27-.22-.54-.44-.8-.66-.27-.22-.54-.43-.8-.66-.27-.22-.54-.43-.8-.66-.27-.22-.54-.44-.8-.66-.27-.22-.54-.44-.8-.66-.27-.22-.54-.44-.8-.66-.27-.22-.54-.44-.8-.66-.27-.22-.54-.44-.8-.66-.27-.22-.54-.44-.8-.66-.27-.22-.54-.44-.8-.66-.27-.22-.54-.44-.8-.66-20.84-17.49-34.18-44.22-34.18-74.19,0-9.94,1.47-19.53,4.19-28.54l-23.4,1.58,7.73,114.68c1.13,16.78-9.3,28.73-28.88,30.05-1.11.07-2.19.11-3.25.11-8.54,0-15.44-2.4-20.42-6.66-.27-.21-.54-.44-.8-.66-.27-.21-.54-.44-.8-.66-.27-.21-.54-.44-.8-.66-.27-.21-.54-.44-.8-.66-.27-.21-.54-.44-.8-.66-.27-.21-.54-.44-.8-.66-.27-.21-.54-.44-.8-.66-.27-.21-.54-.44-.8-.66-.27-.21-.54-.44-.8-.66-.27-.21-.54-.44-.8-.66-.27-.21-.54-.44-.8-.66-.27-.21-.54-.44-.8-.66-.27-.21-.54-.44-.8-.66-.27-.21-.54-.44-.8-.66-.27-.21-.54-.44-.8-.66-.27-.21-.54-.44-.8-.66-.27-.21-.54-.44-.8-.66-.27-.21-.54-.44-.8-.66-.27-.21-.54-.44-.8-.66-.27-.21-.54-.44-.8-.66-.27-.21-.54-.44-.8-.66-.27-.21-.54-.44-.8-.66-.27-.21-.54-.44-.8-.66-.27-.21-.54-.44-.8-.66-.27-.21-.54-.44-.8-.66-.27-.21-.54-.44-.8-.66-.27-.21-.54-.44-.8-.66-.27-.21-.54-.44-.8-.66-.27-.21-.54-.44-.8-.66-.27-.21-.54-.44-.8-.66-5.8-4.54-9.21-11.44-9.79-20.01l-6.24-92.59-7.38.5c-1.11.07-2.19.11-3.25.11-8.54,0-15.44-2.4-20.42-6.66-.27-.21-.54-.44-.8-.66-.27-.21-.54-.44-.8-.66-.27-.21-.54-.44-.8-.66-.27-.21-.54-.44-.8-.66-.27-.21-.54-.44-.8-.66-.27-.21-.54-.44-.8-.66-.27-.21-.54-.44-.8-.66-.27-.21-.54-.44-.8-.66-.27-.21-.54-.44-.8-.66-.27-.21-.54-.44-.8-.66-.27-.21-.54-.44-.8-.66-.27-.21-.54-.44-.8-.66-.27-.21-.54-.44-.8-.66-.27-.21-.54-.44-.8-.66-.27-.21-.54-.44-.8-.66-.27-.21-.54-.44-.8-.66-.27-.21-.54-.44-.8-.66-.27-.21-.54-.44-.8-.66-.27-.21-.54-.44-.8-.66-.27-.21-.54-.44-.8-.66-.27-.21-.54-.44-.8-.66-.27-.21-.54-.44-.8-.66-.27-.21-.54-.44-.8-.66-.27-.21-.54-.44-.8-.66-.27-.21-.54-.44-.8-.66-.27-.21-.54-.44-.8-.66-.27-.21-.54-.44-.8-.66-.27-.21-.54-.44-.8-.66-.27-.21-.54-.44-.8-.66-.27-.21-.54-.44-.8-.66-5.8-4.54-9.21-11.44-9.79-20.01-1.13-16.78,9.3-28.73,28.88-30.05l123.08-8.3c1.11-.07,2.19-.11,3.25-.11M595.34,459.36c19.56,0,35.42-15.86,35.42-35.42,0-5-1.05-9.75-2.91-14.06-2.46-.54-5.01-.85-7.63-.85-19.56,0-35.42,15.86-35.42,35.42,0,5,1.05,9.75,2.91,14.06,2.46.54,5.01.85,7.63.85M489.53,308.33h0c-1.28,0-2.6.05-3.92.13l-123.08,8.3c-12.05.81-22.02,5.09-28.84,12.37-6.87,7.34-10.11,17.14-9.35,28.33.77,11.36,5.41,20.71,13.43,27.07.26.22.53.44.8.66.26.22.53.44.8.66.26.22.53.44.8.66.26.22.53.45.8.66.26.22.53.44.8.66.27.23.53.45.81.66.26.22.53.44.8.66.27.22.53.45.81.66.26.22.53.44.8.66.26.22.53.45.8.66.26.22.53.44.8.66.26.22.53.45.8.66.26.22.53.45.8.66.26.22.53.45.8.66.26.22.53.44.8.66.26.22.53.44.8.66.26.22.53.45.8.66.26.22.53.45.8.66.26.22.53.45.8.66.26.22.53.44.8.66.26.22.53.45.8.66.26.22.53.45.8.66.26.22.53.44.8.66.26.22.53.44.8.66.27.23.54.45.81.67.26.22.53.44.8.66.26.22.53.45.8.66.26.22.53.45.8.66.26.22.53.44.8.66.27.23.53.45.81.67,6.91,5.84,16.16,8.93,26.76,8.93.44,0,.88,0,1.32-.02l5.57,82.67c.77,11.36,5.41,20.71,13.42,27.07.26.22.53.44.8.66.26.22.53.45.8.66.26.22.53.45.8.66.26.22.53.44.8.66.26.22.53.44.8.66.26.22.53.44.8.66.26.22.53.45.81.66.26.22.53.45.8.66.26.22.53.44.8.66.26.22.53.44.8.66.26.22.53.45.8.66.26.22.53.45.8.66.26.22.53.44.8.66.26.22.53.45.8.66.26.22.53.44.8.66.26.22.53.44.8.66.26.22.53.44.8.66.26.22.53.45.8.66.26.22.53.45.8.66.26.22.53.45.8.66.26.22.53.44.8.66.26.22.53.44.8.66.26.22.53.45.8.66.26.22.53.45.8.66.27.22.53.45.81.66.26.22.53.44.8.66.26.22.53.45.8.66.22.19.5.42.81.66.23.19.5.42.81.66.26.22.53.45.8.66,6.91,5.84,16.16,8.93,26.76,8.93,1.28,0,2.6-.05,3.92-.13,12.05-.81,22.02-5.09,28.84-12.37,6.87-7.34,10.11-17.14,9.35-28.33l-3.71-55c5.95,19.31,17.25,36.61,32.92,49.78.2.17.41.34.61.51l.22.18c.19.16.39.32.59.48l.22.18c.2.17.39.33.59.49l.21.17c.19.17.39.33.59.49l.21.17c.19.17.39.33.59.49l.21.17c.19.16.39.33.59.49l.21.17c.19.17.39.33.59.49l.21.18c.19.17.39.33.59.49l.21.17c.19.17.39.33.59.49l.21.17c.2.17.4.33.59.49l.21.17c.19.17.39.33.59.49l.21.17c.19.17.39.33.59.49l.21.18c.19.16.39.32.58.48l.21.18c.19.17.39.33.59.49l.22.18c.19.17.39.33.59.49l.21.17c.19.16.39.33.59.49l.22.18c.19.16.39.32.59.48l.21.18c.19.16.39.32.58.48l.21.18c.2.17.4.33.6.5l.21.17c.19.16.39.32.59.48l.21.17c.2.17.4.33.59.49l.21.17c.19.16.39.32.58.48l.21.18c.19.16.39.32.59.48l.22.18c.2.17.39.33.59.49l.21.17c.2.17.39.33.59.49l.21.17c.2.17.39.33.59.49l.21.17c.19.16.39.32.59.48l.22.18c.19.17.39.33.59.49l.21.18c.19.16.39.33.59.49l.22.18c.19.16.39.32.58.48l.21.17c18.23,15.62,41.32,24.22,65.04,24.22,27.31,0,52.96-11.01,72.23-31,19.18-19.89,29.74-46.31,29.74-74.4,0-31.87-13.74-61.69-37.71-81.82-.21-.17-.41-.35-.62-.52l-.21-.17c-.19-.16-.39-.33-.59-.49l-.21-.17c-.19-.17-.39-.33-.59-.49l-.21-.17c-.2-.17-.39-.33-.59-.49l-.21-.17c-.2-.17-.4-.33-.6-.5l-.21-.17c-.19-.17-.39-.33-.59-.49l-.21-.17c-.19-.16-.39-.33-.59-.49l-.21-.17c-.2-.17-.4-.33-.59-.49l-.21-.17c-.19-.17-.39-.33-.59-.49l-.21-.18c-.19-.16-.39-.32-.58-.48l-.22-.18c-.19-.16-.39-.33-.59-.49l-.21-.18c-.19-.16-.39-.32-.58-.48l-.22-.18c-.19-.17-.39-.33-.59-.49l-.22-.18c-.19-.16-.39-.32-.59-.48l-.21-.18c-.19-.17-.39-.33-.59-.49l-.22-.18c-.19-.16-.39-.32-.58-.48l-.21-.18c-.2-.17-.39-.33-.59-.49l-.21-.17c-.19-.17-.39-.33-.59-.49l-.21-.17c-.19-.16-.39-.33-.59-.49l-.21-.17c-.19-.16-.39-.32-.59-.48l-.21-.17c-.19-.17-.39-.33-.59-.49l-.21-.17c-.2-.17-.4-.33-.59-.49l-.22-.18c-.19-.16-.39-.32-.58-.48l-.22-.18c-.2-.17-.4-.33-.59-.49l-.21-.17c-.19-.17-.39-.33-.59-.49l-.21-.17c-.19-.17-.39-.33-.59-.49l-.21-.18c-.19-.16-.39-.32-.59-.48l-.22-.18c-.19-.16-.39-.32-.58-.48l-.21-.18c-.2-.17-.4-.33-.6-.49l-.21-.17c-.19-.16-.39-.33-.59-.49l-.21-.17c-18.23-15.62-41.32-24.22-65.04-24.22-20.3,0-39.58,6.02-56.26,17.5-.1-.08-.21-.17-.31-.25-.26-.22-.53-.45-.8-.66-.26-.22-.53-.44-.8-.66-.26-.22-.53-.45-.81-.66-.26-.22-.53-.45-.8-.66-.26-.22-.53-.45-.8-.66-.26-.22-.53-.44-.8-.66-.26-.22-.53-.45-.8-.66-.26-.22-.53-.45-.8-.66-.26-.22-.53-.44-.8-.66-.26-.22-.53-.44-.8-.66-.27-.23-.53-.45-.81-.67-.26-.22-.53-.44-.8-.66-.26-.22-.53-.45-.8-.66-.26-.22-.53-.45-.8-.66-.26-.22-.53-.44-.8-.66-.26-.22-.53-.44-.8-.66-.26-.22-.53-.44-.8-.66-.26-.22-.53-.45-.8-.66-.27-.23-.53-.45-.81-.66-.26-.22-.53-.45-.8-.66-.26-.22-.53-.44-.8-.66-.26-.22-.53-.45-.8-.66-.27-.23-.53-.45-.81-.66-.26-.22-.53-.44-.8-.66-.26-.22-.53-.45-.8-.66-.26-.22-.53-.45-.8-.66-.26-.22-.53-.45-.8-.66-.27-.23-.54-.45-.81-.67-6.91-5.84-16.16-8.92-26.76-8.92h0ZM595.27,449.36c-.32-1.61-.48-3.25-.48-4.91,0-14.02,11.4-25.42,25.42-25.42.02,0,.04,0,.07,0,.32,1.61.48,3.25.48,4.91,0,14.02-11.4,25.42-25.42,25.42-.02,0-.05,0-.07,0h0Z"/>
        </g>
      </g>
      <g>
        <path class="cls-3" d="M106.77,315.38l-58.02-2.23c-20.31-.78-32.36,10.37-33.03,27.78l-5.7,147.95c-.67,17.4,10.49,29.46,30.79,30.24,20.31.78,32.36-10.38,33.03-27.78l1.34-34.81,26.11,1.01c58.02,2.23,91.16-28.45,92.66-67.61,1.51-39.16-29.17-72.3-87.19-74.53ZM103.3,405.31l-26.11-1.01,1.45-37.71,26.11,1c14.5.56,22.87,9.6,22.48,19.75-.39,10.15-9.43,18.52-23.93,17.96Z"/>
        <path class="cls-12" d="M319.58,364.79c-7.03-19.92-18.76-32.1-45.02-32.89-26.26-.78-38.43,10.68-46.9,30.15l-45.31,109.05s-7.04,15.56-7.27,23.44c-.43,14.44,11.04,26.62,28.11,27.12,14.44.43,25.26-9.76,32.3-25.32l7.03-15.56,55.15,1.64,6.1,15.95c6.1,15.95,16.29,26.77,30.73,27.2,17.07.51,29.24-10.96,29.67-25.4.23-7.88-5.86-23.83-5.86-23.83l-38.73-111.56ZM255.75,433.86l15.62-38.97,2.63.08,13.27,39.83-31.52-.94Z"/>
        <path class="cls-2" d="M518.94,344.34c-1.13-16.78-13.08-27.22-32.66-25.9l-123.08,8.3c-19.58,1.32-30.01,13.26-28.88,30.05,1.13,16.78,13.07,27.22,32.66,25.9l30.77-2.07,7.73,114.68c1.13,16.78,13.07,27.22,32.66,25.9,19.58-1.32,30.01-13.26,28.88-30.05l-7.73-114.68,30.77-2.07c19.58-1.32,30.01-13.26,28.88-30.05Z"/>
        <path class="cls-9" d="M595.34,328.54c-50.79,0-91.97,42.71-91.97,95.4s41.17,95.4,91.97,95.4,91.97-42.71,91.97-95.4-41.17-95.4-91.97-95.4ZM595.34,459.36c-19.56,0-35.42-15.86-35.42-35.42s15.86-35.42,35.42-35.42,35.42,15.86,35.42,35.42-15.86,35.42-35.42,35.42Z"/>
      </g>
      <g>
        <path class="cls-4" d="M880.55,329.97c-15.93,95.22-108.79,68.23-175.98,57.95l-87.28,16.04c-4.81.9-8.29-4.49-5.51-8.51,4.64-6.6,13.7-19.95,18.29-26.51-4.99-3.26-9.39-6.88-13.23-10.76l-.09-.11c-11.08-11.24-17.59-24.73-20.14-38.81-1.64-9.01-1.67-18.27-.24-27.3,6.34-40.39,41.53-76.58,90.3-68.73,65.21,14.12,196.35,2.2,194.41,97.82,0,.25,0,.5-.01.75-.05,2.64-.24,5.36-.51,8.17Z"/>
        <g>
          <path class="cls-5" d="M693.4,279.72c-1.27-15.43-27.2-19.2-32.88-4.78-3.07,6.37-22.89,39.04-24.35,45.38-1.32,12.29,16.61,14.95,21.6,3.14,0,0,3.17-5.29,3.17-5.29l19.73,2.87,1.53,5.98c1.42,12.73,19.37,15.32,21.61,3.14.43-6.35-9.32-43.62-10.41-50.43ZM667.63,301.87l7.22-13.34.94.14,3.12,14.84-11.27-1.64Z"/>
          <path class="cls-5" d="M750.31,278.41c-8.18-.19-29.4-8.58-30.49,5.16,0,0-6.97,47.91-6.97,47.91-2.85,12.22,19.91,15.54,20.67,3.01,0,0,1.64-11.27,1.64-11.27,41.33,12.89,60.69-36.07,15.15-44.8ZM746.07,307.53l-8.45-1.23,1.78-12.21,8.45,1.23c9.95,1.3,8.13,13.8-1.78,12.21Z"/>
          <path class="cls-5" d="M812.55,288.91c-8.18-.19-29.4-8.58-30.49,5.16,0,0-6.97,47.91-6.97,47.91-2.85,12.22,19.91,15.54,20.67,3.01,0,0,1.64-11.27,1.64-11.27,41.33,12.89,60.7-36.07,15.15-44.8ZM808.31,318.02l-8.45-1.23,1.78-12.21,8.45,1.23c9.95,1.3,8.13,13.8-1.78,12.21Z"/>
        </g>
        <path class="cls-11" d="M880.55,329.97c-15.93,95.22-108.79,68.23-175.98,57.95l-87.28,16.04c-4.81.9-8.29-4.49-5.51-8.51,4.64-6.6,13.7-19.95,18.29-26.51-4.91-2.86-9.33-6.53-13.23-10.76l-.09-.11c-10.11-11.01-16.78-25.68-20.14-38.81-1.64-9.01-1.67-18.27-.24-27.3,1.54,23.74,13.82,62.02,57.73,63.73,9.7.39-21.16,25.85-12.84,28.93,14.5,5.35,47.53-12.51,57.64-11.68,75.02,7.46,159.86,36.92,182.17-51.88,0,.25,0,.5-.01.75-.03,2.69-.2,5.41-.51,8.17Z"/>
        <path class="cls-6" d="M794.42,253.05c26.02-2.66,58.26,9.66,69.21,35.23,6.88,15.57,1.62,35.4-9.95,46.2,3.63-19.5,1.15-34.67-12.69-48.04-12.07-12.42-29.65-19.96-46.85-23.67-5.51-.99-5.24-9.08.28-9.73h0Z"/>
      </g>
      <path d="M673.42,222.15c4.29,0,8.71.35,13.25,1.08,65.21,14.12,196.35,2.2,194.41,97.82,0,.25,0,.5-.01.75-.03,2.69-.2,5.41-.51,8.17-9.28,55.45-44.64,69.46-85.83,69.46-29.54,0-62.09-7.21-90.15-11.5l-87.28,16.04c-.36.07-.71.1-1.05.1-4.24,0-7.03-4.89-4.45-8.61,4.64-6.6,13.7-19.95,18.29-26.51-4.91-2.86-9.33-6.53-13.23-10.76l-.09-.11c-11.08-11.24-17.59-24.73-20.14-38.81-1.64-9.01-1.67-18.27-.24-27.3,5.75-36.63,35.23-69.81,77.05-69.81M673.42,213.15c-22.11,0-42.27,8.19-58.31,23.7-14.6,14.11-24.41,33.19-27.63,53.72-1.62,10.19-1.52,20.39.28,30.31,2.96,16.35,10.65,31.26,22.24,43.16h0s.23.25.23.25c2.33,2.53,4.78,4.84,7.35,6.92-1.1,1.6-2.26,3.29-3.44,5.01-3.58,5.22-7.28,10.61-9.71,14.06l-.02.03-.02.03c-3.07,4.44-3.43,10.17-.92,14.95,2.52,4.8,7.41,7.78,12.78,7.78.9,0,1.81-.08,2.7-.25l85.77-15.76c6.26.97,12.69,2.08,19.46,3.24,23.31,4,47.42,8.14,70.56,8.14,25.2,0,44.82-5.08,59.99-15.52,18.33-12.62,30.01-33.3,34.72-61.45l.04-.23.03-.23c.34-2.97.53-6.02.57-9.08v-.71c.41-19.71-4.47-36.67-14.49-50.39-8.82-12.09-21.31-21.58-38.19-29.02-29.55-13.03-67.42-17.11-100.83-20.72-17.75-1.91-34.51-3.72-47.98-6.64l-.24-.05-.24-.04c-4.92-.79-9.86-1.19-14.68-1.19h0Z"/>
    </g>
  </g>
</svg>