<?xml version="1.0" encoding="UTF-8"?>
<svg id="Camada_2" data-name="Camada 2" xmlns="http://www.w3.org/2000/svg" xmlns:xlink="http://www.w3.org/1999/xlink" viewBox="0 0 863.56 679.59">
  <defs>
    <style>
      .cls-1 {
        fill: #f79304;
      }

      .cls-2 {
        fill: url(#Gradiente_sem_nome_39);
      }

      .cls-3 {
        fill: #fff;
      }

      .cls-4 {
        fill: url(#Gradiente_sem_nome_763);
        opacity: .53;
      }

      .cls-5 {
        fill: #270a06;
      }

      .cls-6 {
        fill: #220705;
      }

      .cls-7 {
        fill: #fd5e0c;
      }

      .cls-8 {
        fill: url(#Gradiente_sem_nome_586);
      }

      .cls-9 {
        fill: #fcfcf8;
      }

      .cls-10 {
        fill: url(#Gradiente_sem_nome_28);
      }
    </style>
    <linearGradient id="Gradiente_sem_nome_28" data-name="Gradiente sem nome 28" x1="404.38" y1="943.01" x2="236.31" y2="554.71" gradientTransform="translate(76.5 -320.28) rotate(3.6)" gradientUnits="userSpaceOnUse">
      <stop offset=".28" stop-color="#fdaf01"/>
      <stop offset="1" stop-color="#fde801"/>
    </linearGradient>
    <linearGradient id="Gradiente_sem_nome_39" data-name="Gradiente sem nome 39" x1="527.88" y1="758.03" x2="514.76" y2="623.98" gradientTransform="translate(244.35 -595.64) rotate(8.16)" gradientUnits="userSpaceOnUse">
      <stop offset="0" stop-color="#fe0092"/>
      <stop offset="1" stop-color="#ff75c3"/>
    </linearGradient>
    <linearGradient id="Gradiente_sem_nome_586" data-name="Gradiente sem nome 586" x1="515.91" y1="655.76" x2="563.18" y2="840.22" gradientTransform="translate(244.35 -595.64) rotate(8.16)" gradientUnits="userSpaceOnUse">
      <stop offset="0" stop-color="#fe0092"/>
      <stop offset="1" stop-color="#bf2c7f"/>
    </linearGradient>
    <linearGradient id="Gradiente_sem_nome_763" data-name="Gradiente sem nome 763" x1="633.83" y1="552.97" x2="624" y2="668.49" gradientTransform="translate(244.35 -595.64) rotate(8.16)" gradientUnits="userSpaceOnUse">
      <stop offset="0" stop-color="#fff"/>
      <stop offset="1" stop-color="#fff" stop-opacity="0"/>
    </linearGradient>
  </defs>
  <g id="Camada_1-2" data-name="Camada 1">
    <g>
      <path class="cls-10" d="M618.24,324.37c-.55-1.58-1.08-3.45-1.65-5.44-1.54-5.39-3.45-12.09-6.5-15.58l12.8-2.61c-2.86-7.92-14.46-29.47-24.74-26.81-.22.05-7.9,7.13-8.11,7.2l-.38.12c-10.45,3.69-20.51,16.95-28.59,27.6-1.9,2.5-3.69,4.86-5.33,6.89l-.49.61c-2.47,3.05-5.02,6.2-8.29,8.52-7.36,5.21-17.28,3-25.25,1.24l-1.91-.42c-20.62-4.43-41.84-6.61-63.07-6.46-1.69.01-3.49,0-5.37,0-6.88-.04-14.68-.08-22.23.85l-21.61,2.19c-3.09,2.97-39.47,37.18-73.1,36.54l-.56-.23c-.73-.72-1.29-1.52-1.67-2.4-.56-1.23-.78-2.62-.66-4.13l.56-.71,3.76-1.2c11.31-3.68,29.05-17.11,51.28-38.85,9.15-7.33,16.93-15.43,23.19-24.13l.16-.19c1.58-2.19,3.17-4.59,4.71-7.1,19.31-31.72,21.82-73.12,6.4-105.48-2.27-6.12-5.29-12.14-9.24-18.47-7.58-12.21-17.03-23.38-28.07-33.19-60.22-53.53-157.19-57.13-225.56-8.39-24.55,17.51-50.42,57.61-53.91,91.66,5.3-4.18,15.89-10.96,21.54-14.29,9.64-5.7,15.87-10.11,24.18-1.42,6.47,6.77,11.31,14.44,15.99,21.86,8.57,13.58,16.66,26.4,33.72,33.02,38.18,14.81,45.07,56.42,32.14,89.87-7.93,13.36-16.41,21.94-26.74,27.11-10.78,5.4-22.31,7.4-35.16,6.11-9.94-1-20.44-3.26-32.1-6.91-3.04.83-37.23,10.79-65.77,46.19l-.16.18c-25.41,29.99-34.54,74.06-23.18,112.17,5.14,17.18,13.42,33.01,24.63,47.04.02.02.04.05.06.07.54.64,1.07,1.23,1.61,1.85l-.03.02,1.03,1.18c3.35,3.83,6.81,7.79,10.56,11.4,62.29,60.1,163.67,67.55,245.13,73.53l8.16.6c20.76,1.54,43.11,2.94,65.88,2.78,48.37-.36,90.96-12.78,126.6-36.91,37.07-25.1,63.58-54.98,78.79-88.8,5.23-11.64,9.65-23.8,13.13-36.15,15.54-55.18,13.27-114.69-6.57-172.09Z"/>
      <path class="cls-7" d="M205.49,343.36c6.53-4.08,11.75-10.19,15.58-18.18,5.9-12.01,4.1-26.9,2.5-34.71-2.37-14.55-15.4-23.09-29.2-32.14-10.83-7.1-22.03-14.45-28.28-25.1-1.36-2.31-2.87-5.36-4.63-8.89-6.38-12.84-15.12-30.43-26.02-32.17-4.24-.66-8.61,1.22-12.96,5.65-1.08,1.09-7.68,8.33-12.14,14.45-3.71,5.12-9.06,8.71-15.05,10.13l-.61.15c-3.51.83-7.14,1.68-12.97,1.13-7.91-.74-13.52-3.98-19.46-7.41-2.18-1.26-4.43-2.56-6.87-3.78-10.48-5.26-27.41-2.13-36.23,6.69-6.08,6.08-7.2,13.86-3.15,21.92,4.04,8.04,13.52,13.71,23.16,18.65,3.75,2.75,21.18,4.31,22.36,2.76-.03-.04-.3-.94-5.19-3.22-1.46-.68-2.91-1.34-4.37-2.01-6.94-3.16-14.12-6.43-20.39-11.4-2.73-2.16-4.38-4.92-4.43-7.36-.03-1.81.75-3.41,2.32-4.76,3.02-2.6,7.43-2.55,10.49-2.32,15.16,1.28,28.83,8.85,42.06,16.18,2.67,1.48,5.33,2.95,8,4.37,13.47,7.17,28.45,13.68,47.14,20.47,8.53,3.08,17.11,5.97,24.38,8.39,1.38.45,2.84.81,4.27,1.16,2.88.71,5.86,1.44,8.51,3.01,2.03,1.21,3.44,3.54,3.52,5.81.06,1.84-.74,3.43-2.25,4.48-3.16,2.18-7.66,1.27-11.26.53-.53-.11-1.03-.21-1.51-.3-3.33-.63-6.79-1.05-10.14-1.46-1.87-.23-3.73-.46-5.59-.72-11.43-1.58-23.03-3.63-34.45-6.07-.29-.06-27.01-5.92-32.93-9.86-3.14,16.31,14.92,31.51,26.22,39.26h.02c20.33,14.77,45.94,27.22,70.26,34.17,11.97,3.83,21.03-1.61,29.29-7.51Z"/>
      <path class="cls-5" d="M429.38,305.02s-.04.01-.06.02c0,0,0,0,0,0,.02,0,.04-.01.06-.02Z"/>
      <path class="cls-6" d="M308.97,207.42c1.36-21.71-15.51-40.45-37.68-41.84-22.17-1.39-41.26,15.08-42.62,36.79-1.36,21.71,15.51,40.45,37.68,41.84,22.17,1.39,41.26-15.08,42.62-36.79ZM293.54,196.85c4.21.26,7.4,3.89,7.14,8.1-.26,4.21-3.89,7.4-8.1,7.14s-7.4-3.89-7.14-8.1,3.89-7.4,8.1-7.14ZM257.36,209.87c-8.39-.53-14.77-7.76-14.24-16.15.53-8.39,7.76-14.77,16.15-14.24,8.39.53,14.77,7.76,14.24,16.15-.53,8.39-7.76,14.77-16.15,14.24Z"/>
      <circle class="cls-3" cx="258.31" cy="194.68" r="15.22" transform="translate(-29.08 46.24) rotate(-9.69)"/>
      <circle class="cls-3" cx="293.06" cy="204.46" r="7.63"/>
      <path class="cls-1" d="M535.46,328.57c-17.45,2.57-35.16,4.19-52.51,7.31-17.41,3.14-34.39,8.28-51.03,14.22-29.44,10.51-57.96,23.71-87.91,32.78-11.18,3.39-30.08,6.29-40.39-.67-1.89-1.26-10.72-7.22-9.68-23.77,2.17-34.5,50.31-39.65,68.4-69.11,20.97-34.15,26.05-76.72,14.51-115.02-6.61-21.95-18.85-42.29-35.54-58.06-17.56-16.6-39.19-26.96-61.86-34.71-8.61-2.94-18.96-4.49-26.99-8.58,2.84-1.6,9.16-.62,12.55-.7,12.89-.28,25.78-.61,38.68-1,2.27-.07,4.55-.14,6.8.2,2.94.44,5.72,1.56,8.46,2.7,28.48,11.84,56.42,26.3,81.63,44.13,5.68,3.96,11.45,8.02,15.77,13.44,4.25,5.34,6.91,11.73,9.51,18.04,8.39,20.37,16.91,41.21,18.25,63.19,2.35,38.89-17.8,75.16-37.28,108.87,42.39-4.97,58.86-5.52,101.25-10.48,1.95-.24,27.91,6.6,29.5,7.75,1.76,1.27,4.33-7.77,4.42-5.6.38,8.03-.11,14.11-6.54,15.06Z"/>
      <path class="cls-1" d="M216.71,497.78s43.66,81.1,134.19,65.29c90.53-15.81,114.03-69.8,116.8-91.82,2.77-22.01-5.99-37.13-5.99-37.13,0,0,39.33-7.93,40.31,20.56.98,28.49-23.61,121.94-78.74,138.59-55.13,16.64-136.24,28.19-167.81-10.54-31.57-38.73-43.42-81.78-43.42-81.78l4.66-3.17Z"/>
      <path class="cls-5" d="M491.66,433.21c-6.45-3.77-14.11-4.92-21.58-4.97-18.32-.12-36.03,5.87-53.92,9.83-16.35,3.62-33.04,5.56-49.75,6.46-14.93.8-31.08-1.44-45.73,1.52,29.57,5.74,60.04,6.81,89.95,3.26,13.91-1.65,27.33-4.94,41.03-7.69,11.24-2.25,23.86-3.35,32.5,5.75,5.86,11.89,4.71,23.35,1.4,36.01-9.65,36.88-32.03,78.49-67.8,95.08-33.74,15.65-74.96,13.32-110.06,3.81-31.63-8.57-60.73-26.76-77.66-55.44-6.53-11.07-11.21-22.88-13.24-35.6-1.03-6.47-1.48-13.03-1.57-19.58-.04-2.62-1.39-17.23.58-18.66-14.55,10.54-13.2,33.18-11.12,48.84,4.25,31.98,21.07,58.7,45.57,79.23,10.61,8.89,22.48,16.15,35.02,21.96,12.12,5.61,27.97,13.33,41.4,14.43,34.53,2.82,66.95,1.18,98.76-13.61,23.42-10.89,43.9-33.32,56.75-55.28,11.09-18.93,22.2-41.24,25.77-63.88,1.02-6.47,1.42-12.97,1.03-19.43-.77-12.63-6.41-25.67-17.33-32.05Z"/>
      <path class="cls-1" d="M610.38,316.27c2.09,15.24,3.43,30.69,3.78,45.94.44,19.5-.73,39.04-3.47,58.35-1.67,11.76-3.93,23.45-6.79,34.98-35.45,143.04-121.2,159.5-176.57,172.66-55.37,13.16-179.58,3.51-245.7-33-66.12-36.51-111.53-58.78-128.37-119.93-10.51-38.15,3.53-56.18,3.53-56.18,0,0-11.4,3.91-20.67,26.9-9.28,22.99,0,110.94,26.55,137.11,26.55,26.17,106.81,58.48,150.58,68.17,43.77,9.68,190.51,21.21,230.23,14.46,39.72-6.75,67.55-8.24,94.23-28.29,26.68-20.05,67.51-59.09,74.7-70.66,7.2-11.57,38.1-91.46,39.36-122.58,1.26-31.12-10.89-87.81-16.03-116.34-5.14-28.52-22.57-60.14-29.9-61.29-4.31-.67,1.41,29.89,1.97,33.09.95,5.49,1.82,11.03,2.58,16.59Z"/>
      <path d="M627.85,280.88c-4.16-8.38-11.03-13.32-17.71-17.66-23.22-15.06-51.98,24.88-60.23,37.48l-.21.31c-1.92,2.92-3.91,5.95-6.94,7.35-3.66,1.68-7.99.65-12.37-.38-32.79-7.76-66.48-9.28-94.88-4.32-.39.07-1.56.13-2.79.19-1.75.09-3.11.17-4.16.27,5.45-6.18,21.27-25.32,26.87-45.51h-.03s.07-.13.07-.13c7.92-41.57.39-82.88-21.22-116.31-22.13-34.25-58.23-61.21-99.06-73.97-39.55-12.34-84.78-9.82-134.42,7.49-5.66,1.97-11.32,4.12-16.84,6.41-52.29,21.67-89.3,66.62-94.3,114.5-.27,2.66-.74,5.6-2.8,6.72-1.2.64-2.76.5-4.26.31-6.71-.91-13.34-2.91-19.75-4.85-3.85-1.17-7.84-2.37-11.82-3.33-13.42-3.23-24.07-2.71-32.56,1.61-9,4.55-15.82,14.1-17.79,24.92-1.81,9.87-.07,28.5,7.83,36.37,16.1,16.06,22.72,17.59,45.19,20.64,4.01,5.2,7.28,11.16,10.44,16.93,4.04,7.36,8.22,14.97,14.06,21.39,10.22,11.51,21.98,18.54,34.43,25.99,4.76,2.84,9.66,5.78,14.44,8.97l-.03.41c-4.74,2.34-18.75,9.3-28.44,14.39h0s-.19.09-.19.09c-9.43,6.69-18.43,13.75-21.31,16.12-16.9,14.07-29.58,30.3-37.68,48.24-18.45,40.89-15,91.46,9.23,135.29,32.63,59.9,84.39,79.71,157.33,92.25,44.88,8.46,92.26,14.13,149.05,17.7,17.1,1.07,35.06,1.96,54.06,2.67,24.89.57,45.22-.58,63.99-3.62,38.2-6.25,70.84-23.17,105.81-54.86,42.44-38.48,71.24-92.34,81.09-151.64,2.53-15.28,3.75-31.03,3.62-46.82-.33-47.9-12.69-96.88-35.72-141.63ZM434.86,306.01s-.04.01-.06.02c0,0,0,0,0,0,.02,0,.04-.01.06-.02ZM105.94,316.71h-.02c-11.3-7.76-29.36-22.97-26.22-39.28,5.92,3.94,32.64,9.8,32.93,9.86,11.42,2.44,23.02,4.48,34.45,6.07,1.86.26,3.72.49,5.59.72,3.34.41,6.8.83,10.14,1.46.48.09.98.19,1.51.3,3.61.73,8.1,1.65,11.26-.53,1.51-1.04,2.31-2.64,2.25-4.48-.08-2.27-1.49-4.61-3.52-5.81-2.65-1.57-5.63-2.31-8.51-3.01-1.42-.35-2.89-.71-4.27-1.16-7.27-2.42-15.85-5.3-24.38-8.39-18.69-6.8-33.67-13.3-47.14-20.47-2.67-1.42-5.33-2.89-8-4.37-13.22-7.32-26.89-14.9-42.06-16.18-3.05-.24-7.46-.28-10.49,2.32-1.58,1.35-2.36,2.95-2.32,4.76.05,2.45,1.7,5.2,4.43,7.36,6.27,4.97,13.45,8.23,20.39,11.4,1.45.66,2.91,1.33,4.37,2.01,4.9,2.29,5.16,3.18,5.19,3.22-1.18,1.55-18.61,0-22.36-2.76-9.65-4.94-19.13-10.61-23.16-18.65-4.05-8.06-2.93-15.85,3.15-21.92,8.82-8.82,25.76-11.95,36.23-6.69,2.44,1.23,4.69,2.53,6.87,3.78,5.94,3.43,11.55,6.67,19.46,7.41,5.83.56,9.46-.3,12.97-1.13l.61-.15c5.99-1.42,11.33-5.02,15.05-10.13,4.45-6.12,11.06-13.36,12.14-14.45,4.35-4.42,8.72-6.3,12.96-5.65,10.9,1.74,19.64,19.32,26.02,32.17,1.76,3.53,3.27,6.58,4.63,8.89,6.25,10.65,17.45,18,28.28,25.1,13.8,9.05,26.84,17.6,29.2,32.14,1.6,7.81,3.4,22.7-2.5,34.71-3.83,8-9.05,14.11-15.58,18.18-8.25,5.9-17.31,11.34-29.29,7.51-24.32-6.96-49.92-19.41-70.26-34.16ZM629.77,497.28c-3.48,12.35-7.9,24.52-13.13,36.15-15.21,33.82-41.72,63.7-78.79,88.8-35.63,24.13-78.23,36.55-126.6,36.91-22.78.17-45.12-1.23-65.88-2.78l-8.16-.6c-81.46-5.98-182.84-13.43-245.13-73.53-3.75-3.61-7.21-7.57-10.56-11.4l-1.03-1.18.03-.02c-.54-.62-1.07-1.21-1.61-1.85-.02-.02-.04-.05-.06-.07-11.21-14.03-19.5-29.86-24.63-47.04-11.36-38.11-2.23-82.17,23.18-112.17l.16-.18c28.54-35.4,62.73-45.36,65.77-46.19,11.66,3.64,22.16,5.91,32.1,6.91,12.86,1.29,24.38-.71,35.16-6.11,10.33-5.17,18.81-13.75,26.74-27.11,12.93-33.45,6.04-75.05-32.14-89.87-17.05-6.62-25.15-19.45-33.72-33.02-4.68-7.42-9.52-15.09-15.99-21.86-8.31-8.69-20.84-10.77-30.48-5.06-5.64,3.33-11.18,7.13-16.48,11.32,3.49-34.06,30.61-64.7,55.16-82.21,68.37-48.75,165.34-45.14,225.56,8.39,11.04,9.82,20.48,20.98,28.07,33.19,3.96,6.33,6.97,12.34,9.24,18.47,15.43,32.36,12.91,73.76-6.4,105.48-1.54,2.51-3.13,4.91-4.71,7.1l-.16.19c-6.25,8.7-14.03,16.8-23.19,24.13-22.23,21.74-39.97,35.17-51.28,38.85l-3.76,1.2-.56.71c-.12,1.5.1,2.9.66,4.13.38.87.94,1.68,1.67,2.4l.56.23c33.63.65,70.01-33.57,73.1-36.54l21.61-2.19c7.54-.93,15.34-.89,22.23-.85,1.88,0,3.68.02,5.37,0,21.22-.14,42.44,2.03,63.07,6.46l1.91.42c7.97,1.77,17.9,3.97,25.25-1.24,3.27-2.31,5.82-5.47,8.29-8.51l.49-.61c1.64-2.03,3.43-4.39,5.33-6.89,8.08-10.65,18.14-23.91,28.59-27.6l.38-.12c.21-.07.43-.14.65-.2,10.15-2.44,15.06,11.44,18.26,18.48,4.62,10.16,8.13,20.78,11.4,31.44,6.96,22.75,12.01,45.76,13.82,69.54s.71,46.7-3.33,69.65c-1.57,8.9-3.58,17.72-6.03,26.42Z"/>
      <ellipse class="cls-9" cx="220.07" cy="121.36" rx="40.14" ry="17.65" transform="translate(-31.01 110.53) rotate(-26.4)"/>
    </g>
    <g>
      <g>
        <path class="cls-2" d="M844.42,163.04c-23.77,120.84-141.2,83.06-226.5,67.52l-111.88,17.29c-6.17.97-10.41-6.02-6.72-11.05,6.16-8.25,18.2-24.94,24.29-33.14-6.24-4.34-11.72-9.12-16.48-14.21l-.11-.14c-13.72-14.74-21.53-32.17-24.28-50.22-1.76-11.55-1.47-23.36.68-34.83,9.55-51.27,55.73-96.15,117.63-84.37,82.64,20.37,250.3,9.93,244.35,131.79-.01.32-.03.63-.04.95-.16,3.36-.5,6.82-.95,10.4Z"/>
        <g>
          <path class="cls-3" d="M607.59,92.17c-1.06-19.72-33.98-25.47-41.75-7.29-4.15,8.01-30.61,48.95-32.7,56.98-2.12,15.63,20.64,19.67,27.44,4.79,0,0,4.23-6.64,4.23-6.64l25.05,4.38,1.73,7.68c1.35,16.29,24.14,20.23,27.44,4.79.78-8.08-10.3-55.96-11.44-64.69ZM573.93,119.48l9.69-16.75,1.19.21,3.43,19.04-14.31-2.5Z"/>
          <path class="cls-3" d="M680.21,92.57c-10.42-.54-37.17-12.01-39.06,5.47,0,0-10.63,60.83-10.63,60.83-4.07,15.48,24.82,20.54,26.24,4.58,0,0,2.5-14.31,2.5-14.31,52.24,17.94,78.7-43.8,20.95-56.57ZM673.75,129.55l-10.74-1.88,2.71-15.51,10.74,1.88c12.64,2.02,9.87,17.89-2.71,15.51Z"/>
          <path class="cls-3" d="M759.19,108.21c-10.42-.54-37.17-12.01-39.06,5.47,0,0-10.63,60.83-10.63,60.83-4.07,15.48,24.82,20.54,26.24,4.58,0,0,2.5-14.31,2.5-14.31,52.24,17.94,78.7-43.8,20.95-56.57ZM752.73,145.19l-10.74-1.88,2.71-15.51,10.74,1.88c12.64,2.02,9.87,17.89-2.71,15.51Z"/>
        </g>
        <path class="cls-8" d="M844.42,163.04c-23.77,120.84-141.2,83.06-226.5,67.52l-111.88,17.29c-6.17.97-10.41-6.02-6.72-11.05,6.16-8.25,18.2-24.94,24.29-33.14-6.16-3.82-11.66-8.66-16.48-14.21l-.11-.14c-12.49-14.4-20.47-33.36-24.28-50.22-1.76-11.55-1.47-23.36.68-34.83,1.1,30.33,15.38,79.59,71.31,83.36,12.36.85-27.92,32.2-17.42,36.42,18.29,7.35,61.07-14.23,73.92-12.8,95.39,12.24,202.51,52.88,234.17-59.55-.01.32-.03.63-.04.95-.14,3.43-.45,6.9-.95,10.4Z"/>
        <path class="cls-4" d="M737.38,61.83c33.28-2.44,73.95,14.43,86.98,47.43,8.21,20.1.78,45.2-14.36,58.56,5.34-24.74,2.72-44.16-14.44-61.71-14.94-16.27-37.09-26.52-58.89-31.88-6.99-1.46-6.36-11.77.71-12.4h0Z"/>
      </g>
      <path d="M581.36,18c6.36,0,12.94.61,19.7,1.9,82.64,20.37,250.3,9.93,244.35,131.79-.01.32-.03.63-.04.95-.14,3.43-.45,6.9-.95,10.4-13.29,67.57-55.86,85.54-105.73,85.54-39.31,0-83.17-11.18-120.77-18.03l-111.88,17.29c-.39.06-.77.09-1.15.09-5.53,0-9.03-6.43-5.57-11.14,6.16-8.25,18.2-24.94,24.29-33.13-6.16-3.82-11.66-8.66-16.48-14.21l-.11-.14c-13.72-14.74-21.53-32.17-24.28-50.22-1.76-11.55-1.47-23.36.68-34.83,8.51-45.67,46.07-86.26,97.94-86.26M581.36,0c-29.15,0-55.96,10.67-77.53,30.86-19.56,18.31-33.09,43.21-38.1,70.1-2.56,13.65-2.83,27.4-.78,40.83,3.38,22.21,13.18,42.67,28.38,59.21l.23.26c1.72,1.98,3.5,3.87,5.34,5.67-.38.52-.76,1.04-1.14,1.57-4.74,6.51-9.65,13.23-12.84,17.51l-.05.06-.04.06c-5.61,7.64-6.43,17.63-2.16,26.07,4.29,8.46,12.81,13.72,22.24,13.72,1.31,0,2.63-.1,3.93-.31l108.83-16.82c7.56,1.41,15.34,2.97,23.52,4.62,30.68,6.17,65.46,13.16,97.52,13.16s56.96-6.76,76.89-20.67c23.76-16.58,39.41-43.3,46.51-79.4l.09-.46.07-.46c.57-3.99.95-8.1,1.12-12.22l.04-.87c2.42-49.97-20.47-86.76-68.01-109.36-38.13-18.12-86.8-24.78-129.74-30.65-22.38-3.06-43.52-5.95-60.27-10.08l-.47-.12-.47-.09c-7.72-1.47-15.48-2.21-23.06-2.21h0Z"/>
    </g>
  </g>
</svg>